<svg width="671" height="114" viewBox="0 0 671 114" fill="none" xmlns="http://www.w3.org/2000/svg">
<path d="M24.7006 110.571C22.3204 110.571 20.2734 109.857 18.5596 108.429C16.8459 107.001 15.6082 104.954 14.8465 102.288C14.5609 100.955 14.3704 99.4794 14.2752 97.8609C14.18 96.1471 14.1324 95.0046 14.1324 94.4334L13.704 82.5799C13.5136 75.7249 13.3232 70.298 13.1327 66.2992C13.0375 64.4903 12.7519 62.7289 12.2759 61.0151C11.895 59.587 11.3714 58.5873 10.7049 58.0161C10.1337 57.3496 9.27679 57.0164 8.13428 57.0164C7.1822 57.0164 6.0873 57.1592 4.84958 57.4448V65.5852C4.84958 68.8223 5.04 73.8683 5.42084 80.7233C5.42084 82.2467 5.51604 84.6269 5.70646 87.864C6.46813 98.5274 6.84897 105.097 6.84897 107.572C6.56334 109.286 5.75407 110.143 4.42114 110.143C2.61218 110.143 1.7077 109.238 1.7077 107.429C1.7077 101.622 1.66009 97.2896 1.56488 94.4334C1.27926 87.2927 1.13645 80.2473 1.13645 73.2971L0.850819 59.1586L0.42238 39.3076C0.327171 37.0226 0.279567 33.4998 0.279567 28.7394L0.42238 7.46027L0.279567 5.17526C0.279567 4.5088 0.42238 3.88994 0.708006 3.31869C0.708006 3.12828 0.850819 2.93786 1.13645 2.74744C1.42207 2.46182 1.89811 2.31901 2.56458 2.31901C3.70708 2.41421 4.32594 3.3187 4.42114 5.03245C4.42114 6.36537 4.51635 8.55517 4.70677 11.6018L4.84958 18.1712C4.75437 20.9323 4.61156 26.264 4.42114 34.1663C4.23073 42.0686 4.18312 47.4003 4.27833 50.1614C4.27833 51.3991 4.75437 52.0179 5.70646 52.0179C6.46813 52.0179 7.32501 51.7323 8.27709 51.161C10.8477 49.5425 12.3235 45.6389 12.7043 39.4504C12.8947 37.1654 12.9899 35.3564 12.9899 34.0235C13.1803 31.4529 13.3708 28.787 13.5612 26.026C13.7516 23.2649 13.942 20.5039 14.1324 17.7428C14.4181 13.1728 16.227 8.79319 19.5593 4.60401C20.8922 2.89025 22.606 2.03337 24.7006 2.03337C26.0335 2.03337 27.176 2.319 28.1281 2.89025C29.2706 3.36629 29.8419 4.08036 29.8419 5.03245C29.8419 5.88933 29.6038 6.41298 29.1278 6.60339C28.747 6.79381 28.1281 6.79381 27.2712 6.60339C26.1287 6.31776 25.2242 6.17495 24.5578 6.17495C23.6057 6.17495 22.844 6.41297 22.2728 6.88901C21.7967 7.26985 21.2731 7.98392 20.7018 9.03121C19.2737 11.4114 18.3216 14.0773 17.8456 17.0287C17.3695 19.885 17.0363 23.3601 16.8459 27.4541C16.6555 30.3103 16.5602 32.4525 16.5602 33.8807C16.5602 34.6423 16.5126 36.0229 16.4174 38.0223C16.3222 39.9264 16.1794 41.8306 15.989 43.7348C15.2273 49.6377 12.9899 53.0652 9.27679 54.0173C11.5618 54.0173 13.1803 54.779 14.1324 56.3023C15.0845 57.8257 15.8938 60.0631 16.5602 63.0145C16.8459 64.4427 16.9887 66.8705 16.9887 70.298V80.1521C17.0839 82.6275 17.3219 86.6739 17.7028 92.2912C17.7028 93.2433 17.798 94.8618 17.9884 97.1468C18.1788 99.4318 18.8453 101.526 19.9878 103.431C21.1303 105.335 22.606 106.287 24.415 106.287C24.6054 106.287 25.0814 106.192 25.8431 106.001C26.9856 105.43 27.9853 105.144 28.8422 105.144C29.7943 105.144 30.4131 105.668 30.6987 106.715C30.7939 107.477 30.5083 108.239 29.8419 109C29.1754 109.667 28.3661 110.095 27.414 110.286C26.0811 110.476 25.1766 110.571 24.7006 110.571ZM67.4307 112.999C54.1967 112.999 47.5797 90.1014 47.5797 44.306V38.5935C47.5797 30.596 48.0557 23.6457 49.0078 17.7428C49.5791 14.0297 50.3407 10.983 51.2928 8.60277C52.3401 6.22256 53.7206 4.31838 55.4344 2.89025C57.0529 1.27171 59.1475 0.462435 61.7182 0.462435C64.0032 0.462435 66.0978 0.938478 68.0019 1.89056C69.9061 2.74744 71.477 3.88995 72.7148 5.31807C73.7621 6.65099 74.7141 8.41236 75.571 10.6022C76.4279 12.792 77.0944 14.8865 77.5704 16.8859L78.7129 23.5981C80.9979 39.8788 82.1404 54.3029 82.1404 66.8705V67.2989C82.1404 72.0593 82.0452 76.4389 81.8548 80.4377C81.6644 85.1981 81.1407 90.1966 80.2838 95.4331C79.903 98.0037 79.3318 100.241 78.5701 102.145C77.9036 104.049 76.9992 105.954 75.8566 107.858C73.8573 111.285 71.0486 112.999 67.4307 112.999ZM67.7163 109C69.2396 109 70.6202 108.143 71.8579 106.43C73.0956 104.621 74.0477 102.145 74.7141 99.0034C76.2375 92.3388 77.1896 85.817 77.5704 79.438C77.7608 74.2968 77.856 69.2983 77.856 64.4427V63.8714L77.7132 49.5901C77.5228 44.4488 76.9515 37.7842 75.9995 29.5963C75.2378 23.7886 73.6668 17.838 71.2866 11.7447C70.3345 9.36444 69.0492 7.50787 67.4307 6.17495C65.9073 4.84203 64.2412 4.17557 62.4322 4.17557C60.8137 4.17557 59.3855 4.93724 58.1478 6.46058C56.9101 7.98392 55.9104 10.1261 55.1488 12.8872C53.435 19.2661 52.4829 25.1691 52.2925 30.596C52.0069 35.2612 51.8641 40.0692 51.8641 45.0201V52.0179C51.8641 58.3969 52.4829 66.4896 53.7206 76.2961C54.4823 82.4847 55.4344 87.864 56.5769 92.434C57.7194 97.004 59.2427 100.86 61.1469 104.002C63.0511 107.334 65.2409 109 67.7163 109ZM132.862 111.428C132.101 111.428 131.577 111.238 131.292 110.857C131.006 110.476 130.863 109.905 130.863 109.143V107.429C130.958 107.049 131.006 106.525 131.006 105.858C131.006 92.8148 130.53 76.2961 129.578 56.3023H128.578H125.865H123.151C117.819 56.3023 114.487 56.4451 113.154 56.7308C113.154 63.681 113.535 72.2974 114.297 82.5799C115.154 94.2906 115.582 102.907 115.582 108.429C115.582 109.857 115.058 110.571 114.011 110.571C112.583 110.571 111.869 109.905 111.869 108.572C111.774 103.907 111.536 97.4801 111.155 89.2921C110.869 81.009 110.584 74.0111 110.298 68.2986C108.489 45.6389 107.585 23.9314 107.585 3.17588C107.585 2.2238 108.203 1.74775 109.441 1.74775C110.012 1.74775 110.441 1.93817 110.726 2.31901C111.107 2.60463 111.25 3.03306 111.155 3.60431V14.1725C111.155 16.7431 111.393 21.5988 111.869 28.7394L112.155 33.595C112.345 38.9267 112.44 42.1162 112.44 43.1635V50.1614C112.44 52.6368 112.678 53.8745 113.154 53.8745L118.581 53.5889L121.437 53.3032C126.198 52.9224 128.911 52.732 129.578 52.732L129.721 52.4464C129.721 48.2572 129.483 40.212 129.007 28.311C128.53 16.2195 128.292 8.12673 128.292 4.03276C128.292 2.89026 128.959 2.31901 130.292 2.31901C130.958 2.31901 131.53 2.50942 132.006 2.89025C132.482 3.17588 132.72 3.60432 132.72 4.17557C132.72 22.7413 133.053 43.1635 133.719 65.4423C134.386 87.8164 134.719 101.526 134.719 106.572V108.572C134.719 109.334 134.529 110 134.148 110.571C133.862 111.143 133.434 111.428 132.862 111.428ZM186.724 111.428C185.962 111.428 185.439 111.238 185.153 110.857C184.868 110.476 184.725 109.905 184.725 109.143V107.429C184.82 107.049 184.868 106.525 184.868 105.858C184.868 92.8148 184.392 76.2961 183.439 56.3023H182.44H179.726H177.013C171.681 56.3023 168.349 56.4451 167.016 56.7308C167.016 63.681 167.397 72.2974 168.158 82.5799C169.015 94.2906 169.444 102.907 169.444 108.429C169.444 109.857 168.92 110.571 167.873 110.571C166.445 110.571 165.731 109.905 165.731 108.572C165.635 103.907 165.397 97.4801 165.017 89.2921C164.731 81.009 164.445 74.0111 164.16 68.2986C162.351 45.6389 161.446 23.9314 161.446 3.17588C161.446 2.2238 162.065 1.74775 163.303 1.74775C163.874 1.74775 164.303 1.93817 164.588 2.31901C164.969 2.60463 165.112 3.03306 165.017 3.60431V14.1725C165.017 16.7431 165.255 21.5988 165.731 28.7394L166.016 33.595C166.207 38.9267 166.302 42.1162 166.302 43.1635V50.1614C166.302 52.6368 166.54 53.8745 167.016 53.8745L172.443 53.5889L175.299 53.3032C180.06 52.9224 182.773 52.732 183.439 52.732L183.582 52.4464C183.582 48.2572 183.344 40.212 182.868 28.311C182.392 16.2195 182.154 8.12673 182.154 4.03276C182.154 2.89026 182.821 2.31901 184.154 2.31901C184.82 2.31901 185.391 2.50942 185.867 2.89025C186.343 3.17588 186.581 3.60432 186.581 4.17557C186.581 22.7413 186.915 43.1635 187.581 65.4423C188.247 87.8164 188.581 101.526 188.581 106.572V108.572C188.581 109.334 188.39 110 188.009 110.571C187.724 111.143 187.295 111.428 186.724 111.428ZM243.871 110C243.109 110 242.442 109.762 241.871 109.286C241.395 108.81 241.157 108.239 241.157 107.572V88.8637C241.157 87.7212 238.729 86.6739 233.874 85.7218C229.018 84.7697 225.019 84.2937 221.877 84.2937C221.687 84.2937 221.354 85.0077 220.878 86.4359C220.497 87.864 220.211 88.9113 220.021 89.5777C218.783 94.5286 217.545 99.8127 216.308 105.43L215.594 108.572C215.403 109.334 214.927 109.714 214.165 109.714C213.404 109.714 212.69 109.476 212.023 109C211.452 108.524 211.166 107.953 211.166 107.287L211.309 107.001V106.858L212.88 99.7175C214.023 95.2427 215.022 90.8631 215.879 86.5787C216.831 81.723 217.545 78.5811 218.021 77.153C218.783 74.0111 220.306 66.1564 222.591 53.5889L223.448 48.876C225.924 34.2139 227.637 24.9787 228.59 21.1703C229.066 18.8853 229.922 15.5054 231.16 11.0306C231.636 9.12642 232.303 7.22225 233.16 5.31807C234.016 3.69952 234.731 2.89025 235.302 2.89025C236.825 2.89025 237.92 3.3663 238.586 4.31839C239.063 5.17527 239.777 9.88809 240.729 18.4569C241.776 27.0257 242.68 35.6896 243.442 44.4488L245.299 68.1558C245.299 72.2498 245.584 78.4383 246.156 86.7215C246.727 95.0998 247.012 101.336 247.012 105.43V106.001C247.012 107.049 246.87 108.001 246.584 108.857C246.203 109.619 245.299 110 243.871 110ZM238.158 82.4371C240.062 82.4371 241.014 81.961 241.014 81.009C241.014 75.106 240.681 67.0609 240.015 56.8736C239.348 46.591 238.634 37.5462 237.872 29.7391C237.682 26.4068 237.301 22.7413 236.73 18.7425L236.159 13.1728C236.159 13.268 236.063 12.7444 235.873 11.6018L235.587 9.88809C234.826 11.9827 234.064 14.8865 233.302 18.5997C232.636 22.3128 231.922 26.6924 231.16 31.7385C228.875 45.9246 226.923 56.5879 225.305 63.7286L224.02 68.5842C222.591 73.3447 221.877 76.9626 221.877 79.438V80.2949C226.067 81.6278 230.875 82.2943 236.301 82.2943H237.158C237.444 82.3895 237.777 82.4371 238.158 82.4371ZM271.939 112.856C271.558 113.047 271.272 113.142 271.082 113.142C270.225 113.142 269.654 112.523 269.368 111.285C269.178 110.714 269.083 110.286 269.083 110C269.083 109.048 269.368 108.524 269.939 108.429C272.034 107.763 273.415 106.62 274.081 105.002C274.748 103.288 275.128 101.146 275.224 98.575L275.652 85.579C275.747 81.2946 275.985 74.868 276.366 66.2992C276.747 62.6813 277.699 59.6346 279.222 57.1592C280.841 54.5886 283.031 52.8748 285.792 52.0179C279.222 49.7329 274.89 46.9243 272.796 43.592C270.511 39.6884 269.368 34.6423 269.368 28.4538C269.463 23.6933 270.082 19.5042 271.225 15.8862C272.463 12.1731 274.605 8.8408 277.651 5.88933C278.603 4.93724 279.698 4.31838 280.936 4.03276C281.983 3.65192 284.697 2.93786 289.076 1.89056C289.362 1.79536 289.886 1.74775 290.647 1.74775C292.361 1.74775 293.884 2.41421 295.217 3.74713C295.598 4.22318 295.884 5.03245 296.074 6.17495C296.36 7.31746 296.55 8.17433 296.646 8.74558C296.741 9.60246 296.788 11.5066 296.788 14.4581C296.788 18.4569 296.741 21.5512 296.646 23.741L296.503 34.0235L296.646 39.5932C297.026 54.6362 297.407 65.7756 297.788 73.0114L298.216 82.5799C298.978 96.1947 299.454 103.907 299.645 105.716V106.144C299.645 107.096 299.454 107.905 299.073 108.572C298.692 109.143 298.169 109.429 297.502 109.429C296.741 109.334 296.027 108.905 295.36 108.143C294.694 107.287 294.408 106.382 294.503 105.43L294.646 97.004C294.741 95.0998 294.789 92.2912 294.789 88.5781C294.599 83.6272 294.503 79.9141 294.503 77.4386L294.218 64.8711L293.932 53.4461C291.933 53.2556 289.743 53.7317 287.363 54.8742C285.078 56.0167 283.65 57.3496 283.078 58.8729C281.365 62.3957 280.46 66.0612 280.365 69.8695C280.27 72.6306 280.222 76.8198 280.222 82.4371L279.936 94.8618C279.841 100.289 278.794 105.002 276.795 109C276.318 109.952 275.7 110.714 274.938 111.285C274.176 111.857 273.177 112.38 271.939 112.856ZM293.075 49.1617C292.885 40.5929 292.79 34.3567 292.79 30.4532C292.79 29.8819 292.456 22.3604 291.79 7.88871C290.457 7.69829 289.552 7.60309 289.076 7.60309C286.506 7.60309 284.173 8.22194 282.079 9.45965C280.079 10.6974 278.461 12.5063 277.223 14.8865C275.224 18.8853 274.224 23.2649 274.224 28.0253C274.224 30.5008 274.414 32.8334 274.795 35.0232C275.462 39.8788 277.271 43.3539 280.222 45.4485C284.221 48.0192 287.982 49.3045 291.504 49.3045L293.075 49.1617ZM376.94 112.285C374.274 112.285 371.465 111.238 368.514 109.143C365.562 107.049 363.468 104.668 362.23 102.002C361.088 99.527 359.898 91.6723 358.66 78.4383C357.517 65.2043 356.946 55.3502 356.946 48.876V41.3069C356.851 39.1172 356.803 36.6893 356.803 34.0235C356.803 29.0726 357.089 24.1694 357.66 19.3137C358.041 16.9335 358.517 14.8865 359.088 13.1728C359.755 11.459 360.659 9.79288 361.802 8.17433C363.896 4.93724 367.038 2.79505 371.227 1.74775C373.417 1.1765 375.845 0.890869 378.511 0.890869C380.32 0.890869 382.129 1.41452 383.938 2.46182C385.842 3.50911 386.794 4.74682 386.794 6.17495C386.794 7.22225 386.032 7.7459 384.509 7.7459C383.938 7.7459 382.843 7.41267 381.224 6.7462C379.796 6.07974 378.511 5.74652 377.368 5.74652C374.702 5.74652 372.275 6.31777 370.085 7.46027C367.99 8.50757 366.324 9.9357 365.086 11.7447C364.039 13.268 363.135 15.3626 362.373 18.0284C361.611 20.6943 361.135 23.3601 360.945 26.026C360.659 28.4062 360.516 31.2624 360.516 34.5947L360.659 42.5923C360.754 44.8773 360.802 47.3527 360.802 50.0185C360.802 56.5879 361.468 66.2516 362.801 79.0096C364.134 91.7675 365.42 99.1462 366.657 101.146C367.8 102.955 369.466 104.335 371.656 105.287C373.941 106.239 376.321 106.715 378.796 106.715C383.176 106.715 386.508 105.335 388.793 102.574C389.65 101.431 390.555 100.86 391.507 100.86C392.364 100.86 392.792 101.526 392.792 102.859C392.792 104.573 392.268 106.096 391.221 107.429C390.174 108.667 388.746 109.619 386.937 110.286C383.89 111.619 380.558 112.285 376.94 112.285ZM425.936 110.857C424.984 110.857 424.27 110.524 423.794 109.857C423.318 109.096 423.08 108.191 423.08 107.144V94.4334V81.723L422.794 58.8729C422.508 48.6856 422.366 41.0689 422.366 36.0229L422.508 31.8813V22.5984C422.508 12.3159 422.413 7.17464 422.223 7.17464H406.085C405.323 7.17464 404.609 6.98423 403.943 6.60339C403.371 6.22256 403.086 5.69891 403.086 5.03245C403.086 4.27078 403.229 3.74713 403.514 3.4615C403.8 3.17588 404.562 2.93786 405.799 2.74744C407.132 2.46182 409.036 2.31901 411.512 2.31901H425.793L441.503 2.17619C442.645 2.17619 443.407 2.3666 443.788 2.74744C444.264 3.12827 444.502 3.74713 444.502 4.60401C444.502 6.03214 443.597 6.7462 441.788 6.7462H435.362H429.078L427.792 6.88901L427.935 15.1722V26.3116V84.2937V96.1471L428.078 106.715V107.001C428.078 107.763 428.03 108.429 427.935 109C427.84 109.476 427.65 109.857 427.364 110.143C427.078 110.619 426.602 110.857 425.936 110.857ZM470.399 111.285C469.732 111.285 469.066 111.047 468.399 110.571C467.733 110.095 467.352 109.572 467.257 109C466.495 105.192 466.019 102.336 465.829 100.432L465.4 92.7196C464.543 81.3898 464.115 72.0593 464.115 64.7283C464.115 60.8247 464.21 56.4927 464.401 51.7323C464.591 46.8767 464.734 43.4967 464.829 41.5926L465.257 32.4525C465.448 22.9317 465.543 15.8386 465.543 11.1734C465.638 10.3165 465.638 9.55486 465.543 8.8884C465.543 8.22194 465.543 7.65069 465.543 7.17464V3.31869C465.543 2.55702 465.876 1.93816 466.543 1.46212C467.209 0.986079 468.066 0.843268 469.113 1.03369C470.637 1.41452 471.256 2.50942 470.97 4.31839C470.78 5.36568 470.637 6.27016 470.542 7.03183C470.542 7.69829 470.542 8.26954 470.542 8.74558L470.256 14.6009C470.065 19.7422 469.875 23.5505 469.685 26.026C469.589 27.8349 469.351 30.7864 468.971 34.8804C468.875 36.3085 468.733 38.0699 468.542 40.1644C468.352 42.1638 468.209 44.544 468.114 47.3051C467.923 54.1601 467.828 59.349 467.828 62.8717C467.828 67.1561 467.876 70.3932 467.971 72.583C468.066 77.5338 468.495 83.9604 469.256 91.8627L469.685 97.7181C469.78 98.3845 469.875 99.1462 469.97 100.003C470.161 100.765 470.304 101.526 470.399 102.288H470.97C471.16 102.193 472.208 98.7654 474.112 92.0056C476.016 85.1505 477.349 80.3901 478.111 77.7243L485.394 51.7323L496.248 12.0303C497.295 8.12673 498.009 5.6037 498.39 4.4612C498.866 3.03307 499.818 2.31901 501.246 2.31901C503.151 2.31901 504.007 3.50911 503.817 5.88933C503.722 6.651 503.579 7.60308 503.389 8.74558C503.198 9.88809 503.055 11.1734 502.96 12.6015C502.96 16.3147 502.865 22.17 502.674 30.1675L502.246 47.7335C502.246 48.876 502.151 50.5898 501.96 52.8748C501.77 56.3023 501.675 58.9206 501.675 60.7295L501.818 75.8677C502.008 82.7227 502.103 87.864 502.103 91.2915V99.0034L502.246 105.573V106.001C502.246 106.953 502.008 107.715 501.532 108.286C501.151 108.857 500.58 109.096 499.818 109C499.152 109 498.533 108.667 497.962 108.001C497.39 107.334 497.105 106.572 497.105 105.716C497.105 104.764 497.2 103.526 497.39 102.002C497.39 100.384 497.486 97.8609 497.676 94.4334C497.866 89.4825 497.962 85.7694 497.962 83.294C497.962 77.2006 498.009 71.8689 498.104 67.2989C498.2 62.6337 498.295 58.7777 498.39 55.7311C498.58 51.7323 498.676 48.7332 498.676 46.7338C498.676 44.3536 498.771 40.6881 498.961 35.7372C499.152 27.3589 499.247 21.0275 499.247 16.7431L498.676 16.6003L495.391 28.4538L486.394 60.1583C484.585 66.3468 481.967 75.7249 478.539 88.2924C476.54 95.3379 475.064 100.955 474.112 105.144C473.731 106.192 473.398 107.429 473.112 108.857C472.731 110.381 471.874 111.19 470.542 111.285H470.399ZM528.529 110.857C528.148 110.857 527.672 110.666 527.101 110.286C526.625 109.905 526.387 109.524 526.387 109.143C526.387 108.286 527.291 104.621 529.1 98.1465C531.481 89.1969 533.67 80.0093 535.67 70.5836L537.098 63.443C537.669 60.9675 538.05 58.5397 538.24 56.1595C538.336 55.3026 538.383 54.1601 538.383 52.732C538.383 49.5901 538.098 46.353 537.526 43.0207C537.05 39.5932 536.194 35.2612 534.956 30.0247L532.671 20.1706C532.48 18.9329 532.147 17.6952 531.671 16.4575L530.814 13.6012C529.862 10.3641 529.291 7.74589 529.1 5.74652C529.957 4.5088 530.719 3.88995 531.385 3.88995C532.147 3.88995 532.766 4.12797 533.242 4.60401C533.718 4.98485 534.004 5.46089 534.099 6.03214C534.194 6.31777 534.242 7.03183 534.242 8.17433C534.337 8.74559 534.385 9.36444 534.385 10.0309L537.812 27.0256L538.812 32.0241C539.193 34.3091 539.621 36.6417 540.097 39.0219C540.573 41.4022 541.002 43.6396 541.382 45.7342C541.954 41.3546 543.81 30.6912 546.952 13.744C546.952 13.744 547.047 13.03 547.238 11.6018C547.523 9.41205 547.904 7.31746 548.38 5.31807C548.666 4.17557 549.047 3.31869 549.523 2.74744C550.094 2.08098 550.665 1.74775 551.236 1.74775C552.95 1.74775 553.807 2.2714 553.807 3.31869C553.807 4.08036 553.521 5.17526 552.95 6.60339C552.284 8.22194 551.951 9.03121 551.951 9.03121C550.618 14.2677 548.666 23.2649 546.095 36.0229L544.667 43.7348C544.001 48.0192 543.62 50.5898 543.525 51.4467C543.334 53.1604 543.239 54.3029 543.239 54.8742L550.808 93.4337L552.379 100.717L552.665 102.431C552.855 103.193 552.95 104.097 552.95 105.144C552.95 107.144 552.189 108.143 550.665 108.143C550.189 108.143 549.761 108.143 549.38 108.143C549.094 108.048 548.809 107.858 548.523 107.572C548.237 107.287 548.095 106.858 548.095 106.287C548.095 104.573 547.857 101.955 547.381 98.4321C547.381 98.3369 547.143 96.9564 546.666 94.2906C546.762 94.6714 546.524 93.4337 545.952 90.5774L544.953 85.4362C542.763 74.392 541.382 67.9654 540.811 66.1564C540.43 66.8229 539.05 72.6306 536.67 83.5796C534.289 94.4334 532.766 101.812 532.1 105.716L531.957 106.715L531.671 108.429C531.481 108.905 531.243 109.381 530.957 109.857C530.862 110.143 530.671 110.333 530.386 110.428C530.1 110.524 529.862 110.619 529.672 110.714L528.529 110.857ZM583.98 111.285C583.313 111.285 582.647 111.047 581.98 110.571C581.314 110.095 580.933 109.572 580.838 109C580.076 105.192 579.6 102.336 579.41 100.432L578.981 92.7196C578.124 81.3898 577.696 72.0593 577.696 64.7283C577.696 60.8247 577.791 56.4927 577.982 51.7323C578.172 46.8767 578.315 43.4967 578.41 41.5926L578.838 32.4525C579.029 22.9317 579.124 15.8386 579.124 11.1734C579.219 10.3165 579.219 9.55486 579.124 8.8884C579.124 8.22194 579.124 7.65069 579.124 7.17464V3.31869C579.124 2.55702 579.457 1.93816 580.124 1.46212C580.79 0.986079 581.647 0.843268 582.694 1.03369C584.218 1.41452 584.837 2.50942 584.551 4.31839C584.36 5.36568 584.218 6.27016 584.122 7.03183C584.122 7.69829 584.122 8.26954 584.122 8.74558L583.837 14.6009C583.646 19.7422 583.456 23.5505 583.266 26.026C583.17 27.8349 582.932 30.7864 582.552 34.8804C582.456 36.3085 582.314 38.0699 582.123 40.1644C581.933 42.1638 581.79 44.544 581.695 47.3051C581.504 54.1601 581.409 59.349 581.409 62.8717C581.409 67.1561 581.457 70.3932 581.552 72.583C581.647 77.5338 582.075 83.9604 582.837 91.8627L583.266 97.7181C583.361 98.3845 583.456 99.1462 583.551 100.003C583.742 100.765 583.884 101.526 583.98 102.288H584.551C584.741 102.193 585.789 98.7654 587.693 92.0056C589.597 85.1505 590.93 80.3901 591.692 77.7243L598.975 51.7323L609.829 12.0303C610.876 8.12673 611.59 5.6037 611.971 4.4612C612.447 3.03307 613.399 2.31901 614.827 2.31901C616.731 2.31901 617.588 3.50911 617.398 5.88933C617.303 6.651 617.16 7.60308 616.969 8.74558C616.779 9.88809 616.636 11.1734 616.541 12.6015C616.541 16.3147 616.446 22.17 616.255 30.1675L615.827 47.7335C615.827 48.876 615.732 50.5898 615.541 52.8748C615.351 56.3023 615.256 58.9206 615.256 60.7295L615.399 75.8677C615.589 82.7227 615.684 87.864 615.684 91.2915V99.0034L615.827 105.573V106.001C615.827 106.953 615.589 107.715 615.113 108.286C614.732 108.857 614.161 109.096 613.399 109C612.733 109 612.114 108.667 611.543 108.001C610.971 107.334 610.686 106.572 610.686 105.716C610.686 104.764 610.781 103.526 610.971 102.002C610.971 100.384 611.067 97.8609 611.257 94.4334C611.447 89.4825 611.543 85.7694 611.543 83.294C611.543 77.2006 611.59 71.8689 611.685 67.2989C611.781 62.6337 611.876 58.7777 611.971 55.7311C612.161 51.7323 612.257 48.7332 612.257 46.7338C612.257 44.3536 612.352 40.6881 612.542 35.7372C612.733 27.3589 612.828 21.0275 612.828 16.7431L612.257 16.6003L608.972 28.4538L599.975 60.1583C598.166 66.3468 595.548 75.7249 592.12 88.2924C590.121 95.3379 588.645 100.955 587.693 105.144C587.312 106.192 586.979 107.429 586.693 108.857C586.312 110.381 585.455 111.19 584.122 111.285H583.98ZM643.253 112.856C642.872 113.047 642.586 113.142 642.396 113.142C641.539 113.142 640.968 112.523 640.682 111.285C640.492 110.714 640.396 110.286 640.396 110C640.396 109.048 640.682 108.524 641.253 108.429C643.348 107.763 644.728 106.62 645.395 105.002C646.061 103.288 646.442 101.146 646.537 98.575L646.966 85.579C647.061 81.2946 647.299 74.868 647.68 66.2992C648.061 62.6813 649.013 59.6346 650.536 57.1592C652.155 54.5886 654.344 52.8748 657.106 52.0179C650.536 49.7329 646.204 46.9243 644.11 43.592C641.825 39.6884 640.682 34.6423 640.682 28.4538C640.777 23.6933 641.396 19.5042 642.539 15.8862C643.776 12.1731 645.918 8.8408 648.965 5.88933C649.917 4.93724 651.012 4.31838 652.25 4.03276C653.297 3.65192 656.011 2.93786 660.39 1.89056C660.676 1.79536 661.199 1.74775 661.961 1.74775C663.675 1.74775 665.198 2.41421 666.531 3.74713C666.912 4.22318 667.198 5.03245 667.388 6.17495C667.674 7.31746 667.864 8.17433 667.959 8.74558C668.055 9.60246 668.102 11.5066 668.102 14.4581C668.102 18.4569 668.055 21.5512 667.959 23.741L667.816 34.0235L667.959 39.5932C668.34 54.6362 668.721 65.7756 669.102 73.0114L669.53 82.5799C670.292 96.1947 670.768 103.907 670.958 105.716V106.144C670.958 107.096 670.768 107.905 670.387 108.572C670.006 109.143 669.483 109.429 668.816 109.429C668.055 109.334 667.34 108.905 666.674 108.143C666.008 107.287 665.722 106.382 665.817 105.43L665.96 97.004C666.055 95.0998 666.103 92.2912 666.103 88.5781C665.912 83.6272 665.817 79.9141 665.817 77.4386L665.531 64.8711L665.246 53.4461C663.246 53.2556 661.057 53.7317 658.676 54.8742C656.391 56.0167 654.963 57.3496 654.392 58.8729C652.678 62.3957 651.774 66.0612 651.679 69.8695C651.583 72.6306 651.536 76.8198 651.536 82.4371L651.25 94.8618C651.155 100.289 650.108 105.002 648.108 109C647.632 109.952 647.013 110.714 646.252 111.285C645.49 111.857 644.49 112.38 643.253 112.856ZM664.389 49.1617C664.199 40.5929 664.103 34.3567 664.103 30.4532C664.103 29.8819 663.77 22.3604 663.104 7.88871C661.771 7.69829 660.866 7.60309 660.39 7.60309C657.82 7.60309 655.487 8.22194 653.392 9.45965C651.393 10.6974 649.774 12.5063 648.537 14.8865C646.537 18.8853 645.538 23.2649 645.538 28.0253C645.538 30.5008 645.728 32.8334 646.109 35.0232C646.775 39.8788 648.584 43.3539 651.536 45.4485C655.535 48.0192 659.295 49.3045 662.818 49.3045L664.389 49.1617Z" fill="#A69373"/>
</svg>
