<svg width="700" height="218" viewBox="0 0 700 218" fill="none" xmlns="http://www.w3.org/2000/svg">
<path d="M18.4261 139.955C17.0612 139.955 15.9693 139.318 15.1503 138.045C14.4224 136.68 14.0584 135.042 14.0584 133.131C14.0584 130.128 14.2404 126.443 14.6044 122.075L14.8773 118.527L15.1503 111.293C15.1503 108.108 14.8318 101.01 14.1949 90.0003C13.5579 78.9902 13.2395 71.8927 13.2395 68.708C13.2395 68.435 13.2395 67.9346 13.2395 67.2066C13.3305 66.3877 13.376 65.1593 13.376 63.5214C13.4669 61.7015 13.5124 59.4722 13.5124 56.8334C13.5124 50.1909 13.0575 45.9598 12.1476 44.1399C11.6016 44.1399 10.4187 44.2764 8.59883 44.5494L4.77713 44.8224C3.59422 44.8224 2.5478 44.5039 1.63787 43.8669C0.727943 43.139 0.272979 42.2291 0.272979 41.1371C0.272979 40.0452 1.36489 39.0898 3.54872 38.2709C6.73347 37.1789 12.1476 36.4055 19.791 35.9505C22.8847 35.7686 24.7501 35.6776 25.387 35.6776C26.4789 35.6776 27.4799 36.0415 28.3898 36.7695C29.2997 37.4974 29.7547 38.4074 29.7547 39.4993C29.7547 40.5912 29.3452 41.5011 28.5263 42.2291C27.7983 42.866 26.8429 43.1845 25.66 43.1845L23.2032 43.048C22.4752 42.957 21.6563 42.9115 20.7464 42.9115H19.3815C20.0184 49.099 20.3369 54.6951 20.3369 59.6997L20.2004 68.435C20.1094 71.0738 20.0639 74.0311 20.0639 77.3068C20.0639 81.6745 20.2459 86.9066 20.6099 93.0031C21.0649 100.556 21.2923 105.788 21.2923 108.699C21.2923 112.157 21.4743 116.252 21.8383 120.983C22.2023 125.806 22.3843 129.901 22.3843 133.267C22.3843 137.726 21.0649 139.955 18.4261 139.955ZM76.3956 139C74.9398 139 73.8478 138.727 73.1199 138.181C72.4829 137.635 72.1645 136.725 72.1645 135.451V117.571C70.9816 116.752 68.7522 116.024 65.4765 115.387C62.2007 114.75 59.107 114.341 56.1952 114.159C55.1943 116.07 54.4664 118.39 54.0114 121.12L53.4654 123.85C53.3744 124.487 53.1015 125.897 52.6465 128.081C52.1915 130.265 51.6911 132.176 51.1451 133.813C50.5992 135.36 50.0532 136.589 49.5072 137.499C46.0495 137.499 44.0477 136.589 43.5017 134.769C44.5026 133.313 45.64 129.036 46.9139 121.939L51.4181 96.9613C53.4199 85.1322 55.2398 75.032 56.8777 66.6606C58.6065 58.2893 60.4264 51.2829 62.3372 45.6413C64.4301 39.3628 66.4319 36.2235 68.3428 36.2235C70.2536 36.2235 71.7095 36.5875 72.7104 37.3154C72.7104 40.9552 73.5749 49.736 75.3037 63.6579C77.1236 77.3068 78.0335 86.6336 78.0335 91.6382C78.0335 96.4608 78.534 103.376 79.5349 112.385C80.4448 121.575 80.8998 128.9 80.8998 134.359C80.8998 137.453 79.3984 139 76.3956 139ZM69.2982 109.655C70.0261 109.655 70.9361 109.518 72.028 109.245C71.755 105.242 71.3 100.283 70.6631 94.368C68.5702 73.8036 67.5238 61.2011 67.5238 56.5604V55.4685C66.6139 56.3784 65.34 60.5186 63.7021 67.8891C62.1553 75.1685 60.6994 82.9939 59.3345 91.3652C57.9696 99.7366 57.2416 105.287 57.1506 108.017C60.9723 109.109 65.0215 109.655 69.2982 109.655ZM107.871 140.365C106.506 140.365 105.278 139.773 104.186 138.591C103.094 137.408 102.594 136.088 102.685 134.632C102.958 129.992 103.094 125.26 103.094 120.437C103.094 116.252 103.003 109.882 102.821 101.329C102.73 97.4162 102.412 91.5472 101.866 83.7218C101.775 82.1749 101.638 79.9456 101.456 77.0338C101.274 74.0311 101.138 71.3923 101.047 69.1175C100.956 67.5706 100.91 65.2503 100.91 62.1565L101.047 48.2346C101.047 47.4157 100.956 46.2782 100.774 44.8224L100.637 41.6831C100.637 40.2272 101.001 39.0898 101.729 38.2709C102.548 37.4519 103.595 37.0425 104.869 37.0425C107.507 37.0425 109.009 38.2709 109.373 40.7277C109.737 43.4575 109.919 45.5048 109.919 46.8697C109.919 48.5076 109.782 50.1454 109.509 51.7833C109.054 55.15 108.827 58.1983 108.827 60.9281L108.963 65.0228C109.327 73.3941 109.509 81.083 109.509 88.0895V104.332C109.509 107.152 109.6 111.384 109.782 117.025L110.601 117.162L112.239 111.839C114.969 102.648 117.562 94.277 120.019 86.7246C121.293 83.1759 122.658 77.6708 124.114 70.2094C124.751 66.9336 125.342 64.2948 125.888 62.293L132.712 37.7249C133.349 36.542 134.123 35.6776 135.033 35.1316C135.943 34.4947 136.853 34.2217 137.763 34.3127C138.854 34.5857 139.901 35.3591 140.902 36.633C141.903 37.8159 142.358 38.9988 142.267 40.1817C142.176 43.3665 141.903 46.6877 141.448 50.1454C140.629 61.5196 140.174 68.6625 140.083 71.5743C139.719 83.7673 139.537 92.9121 139.537 99.0086C139.537 101.92 139.764 106.516 140.219 112.794C140.674 118.982 140.947 123.076 141.038 125.078L141.584 131.903C141.675 133.813 141.22 135.315 140.219 136.407C139.218 137.499 137.899 138.045 136.261 138.045C135.26 138.045 134.396 137.726 133.668 137.089C132.94 136.361 132.53 135.406 132.439 134.223V132.994L132.576 105.56V100.646C132.394 95.9149 132.212 88.6354 132.03 78.8082V73.2121V64.2038C131.939 64.1128 131.711 64.0674 131.348 64.0674C130.802 64.1583 129.983 66.2512 128.891 70.3459C127.89 74.3495 126.934 78.3987 126.024 82.4934C125.115 86.4971 124.523 89.0449 124.25 90.1368C123.431 94.0495 122.931 96.2788 122.749 96.8248C120.201 105.469 118.154 112.703 116.607 118.527C115.06 124.259 113.786 130.083 112.785 135.997C112.239 138.909 110.601 140.365 107.871 140.365ZM119.609 27.3517C116.334 27.1697 113.74 26.1688 111.83 24.349C109.919 22.5291 108.872 20.0723 108.69 16.9785V16.5691C108.69 15.0222 109.509 13.9758 111.147 13.4298C111.966 13.1568 112.876 13.2023 113.877 13.5663C114.969 13.9303 115.697 14.4762 116.061 15.2042C116.243 15.4771 116.379 15.8411 116.47 16.2961C116.561 16.6601 116.652 16.9785 116.743 17.2515C117.289 18.6164 118.063 19.2988 119.063 19.2988C119.7 19.2988 120.292 19.0259 120.838 18.4799C122.021 17.206 123.022 15.4771 123.841 13.2933C124.751 11.2005 125.706 10.2905 126.707 10.5635C127.708 10.8365 128.527 11.428 129.164 12.3379C129.892 13.1568 130.119 13.9758 129.846 14.7947C129.027 17.2515 128.208 19.2988 127.389 20.9367C126.57 22.5746 125.433 23.985 123.977 25.1679C123.34 25.6229 122.521 26.0778 121.52 26.5328C120.61 26.8968 119.973 27.1697 119.609 27.3517ZM188.808 141.047C187.626 141.047 186.716 140.592 186.079 139.682C185.533 138.864 185.26 137.817 185.26 136.543C185.26 117.526 184.896 101.465 184.168 88.3625C181.984 87.9985 180.437 87.8165 179.527 87.8165C175.796 87.8165 173.112 88.135 171.474 88.7719C171.474 93.8675 171.884 101.556 172.703 111.839C173.431 122.758 173.795 130.492 173.795 135.042C173.795 135.952 173.522 136.816 172.976 137.635C172.43 138.363 171.747 138.727 170.928 138.727C169.745 138.727 168.654 136.634 167.653 132.449C166.197 126.261 165.014 113.295 164.104 93.5491C163.467 80.1731 163.148 65.7962 163.148 50.4184C163.057 47.5976 163.012 43.594 163.012 38.4074C163.012 36.7695 163.785 35.9505 165.332 35.9505C166.242 35.9505 167.152 36.178 168.062 36.633C169.063 37.088 169.791 37.5884 170.246 38.1344C169.882 41.0462 169.7 44.4584 169.7 48.3711C169.7 52.1928 169.882 56.8334 170.246 62.293C170.519 68.5715 170.655 73.3031 170.655 76.4879V78.9447C170.564 79.6726 170.519 80.5371 170.519 81.538C170.519 82.4479 170.61 83.6308 170.792 85.0867C171.338 85.0867 172.248 85.0412 173.522 84.9502C174.796 84.8592 176.069 84.7227 177.343 84.5408C180.346 84.2678 182.575 84.1313 184.031 84.1313C184.031 76.2149 183.94 68.89 183.758 62.1565L183.485 39.3628V35.6776C184.668 35.6776 185.715 35.9051 186.625 36.36C187.535 36.724 188.217 37.2244 188.672 37.8614C189.491 38.8623 189.991 40.5912 190.173 43.048V46.1873C190.173 54.0126 190.628 68.981 191.538 91.0922C192.357 111.111 192.767 126.125 192.767 136.134C192.767 137.408 192.357 138.545 191.538 139.546C190.81 140.547 189.9 141.047 188.808 141.047ZM242.459 139C241.004 139 239.912 138.727 239.184 138.181C238.547 137.635 238.228 136.725 238.228 135.451V117.571C237.045 116.752 234.816 116.024 231.54 115.387C228.265 114.75 225.171 114.341 222.259 114.159C221.258 116.07 220.53 118.39 220.075 121.12L219.529 123.85C219.438 124.487 219.165 125.897 218.71 128.081C218.255 130.265 217.755 132.176 217.209 133.813C216.663 135.36 216.117 136.589 215.571 137.499C212.113 137.499 210.111 136.589 209.566 134.769C210.566 133.313 211.704 129.036 212.978 121.939L217.482 96.9613C219.484 85.1322 221.304 75.032 222.941 66.6606C224.67 58.2893 226.49 51.2829 228.401 45.6413C230.494 39.3628 232.496 36.2235 234.407 36.2235C236.317 36.2235 237.773 36.5875 238.774 37.3154C238.774 40.9552 239.639 49.736 241.368 63.6579C243.187 77.3068 244.097 86.6336 244.097 91.6382C244.097 96.4608 244.598 103.376 245.599 112.385C246.509 121.575 246.964 128.9 246.964 134.359C246.964 137.453 245.462 139 242.459 139ZM235.362 109.655C236.09 109.655 237 109.518 238.092 109.245C237.819 105.242 237.364 100.283 236.727 94.368C234.634 73.8036 233.588 61.2011 233.588 56.5604V55.4685C232.678 56.3784 231.404 60.5186 229.766 67.8891C228.219 75.1685 226.763 82.9939 225.398 91.3652C224.033 99.7366 223.305 105.287 223.214 108.017C227.036 109.109 231.085 109.655 235.362 109.655ZM326.022 139C324.566 139 323.474 138.727 322.746 138.181C322.109 137.635 321.791 136.725 321.791 135.451V117.571C320.608 116.752 318.378 116.024 315.103 115.387C311.827 114.75 308.733 114.341 305.821 114.159C304.82 116.07 304.093 118.39 303.638 121.12L303.092 123.85C303.001 124.487 302.728 125.897 302.273 128.081C301.818 130.265 301.317 132.176 300.771 133.813C300.225 135.36 299.679 136.589 299.133 137.499C295.676 137.499 293.674 136.589 293.128 134.769C294.129 133.313 295.266 129.036 296.54 121.939L301.044 96.9613C303.046 85.1322 304.866 75.032 306.504 66.6606C308.233 58.2893 310.053 51.2829 311.963 45.6413C314.056 39.3628 316.058 36.2235 317.969 36.2235C319.88 36.2235 321.336 36.5875 322.337 37.3154C322.337 40.9552 323.201 49.736 324.93 63.6579C326.75 77.3068 327.66 86.6336 327.66 91.6382C327.66 96.4608 328.16 103.376 329.161 112.385C330.071 121.575 330.526 128.9 330.526 134.359C330.526 137.453 329.025 139 326.022 139ZM318.924 109.655C319.652 109.655 320.562 109.518 321.654 109.245C321.381 105.242 320.926 100.283 320.289 94.368C318.196 73.8036 317.15 61.2011 317.15 56.5604V55.4685C316.24 56.3784 314.966 60.5186 313.328 67.8891C311.781 75.1685 310.326 82.9939 308.961 91.3652C307.596 99.7366 306.868 105.287 306.777 108.017C310.599 109.109 314.648 109.655 318.924 109.655ZM356.815 139.682C355.814 139.682 354.995 139.273 354.358 138.454C353.812 137.544 353.539 136.452 353.539 135.178L353.812 112.248C354.085 101.147 354.222 92.5481 354.222 86.4516C354.222 65.2503 353.039 49.008 350.673 37.7249C352.038 35.6321 353.767 34.5857 355.86 34.5857C359.226 34.5857 362.275 35.3591 365.004 36.906C367.825 38.3619 370.146 40.3637 371.965 42.9115C375.514 48.1891 377.289 54.1036 377.289 60.6551C377.289 67.4796 375.833 73.5761 372.921 78.9447C370.009 84.3133 365.778 88.4989 360.227 91.5017L360.5 105.287L360.773 112.521C360.864 114.068 360.91 116.297 360.91 119.209C361.183 125.306 361.319 130.265 361.319 134.086C361.319 135.815 360.955 137.18 360.227 138.181C359.499 139.182 358.362 139.682 356.815 139.682ZM359.954 84.9502C363.503 81.5835 366.096 78.0803 367.734 74.4405C369.463 70.7098 370.328 66.5242 370.328 61.8835V61.747C370.328 59.6542 370.1 57.0154 369.645 53.8307C369.372 52.7387 368.872 51.6468 368.144 50.5549C367.416 49.463 367.006 48.826 366.915 48.6441C366.278 47.7341 364.595 46.3237 361.865 44.4129L358.316 41.8196C358.316 46.4602 358.589 53.6487 359.135 63.3849L359.954 84.9502ZM402.005 139C401.095 139 400.412 138.773 399.957 138.318C399.594 137.772 399.321 136.907 399.139 135.724C398.866 133.085 398.775 130.72 398.866 128.627C399.139 125.533 399.275 120.847 399.275 114.568C399.275 108.927 399.139 103.331 398.866 97.7802C398.684 92.1387 398.593 87.862 398.593 84.9502C398.593 84.0403 398.547 83.2669 398.456 82.6299C398.365 81.993 398.274 81.447 398.183 80.992L397.774 76.7609C397.592 73.8491 397.41 69.3904 397.228 63.3849L396.955 56.8334C396.864 54.1036 396.636 49.7815 396.272 43.8669C396.09 41.8651 396.318 40.4092 396.955 39.4993C397.592 38.5893 398.911 37.9524 400.913 37.5884C401.55 37.4064 402.915 37.088 405.008 36.633C407.1 36.087 409.057 35.8141 410.877 35.8141C411.696 35.8141 412.333 35.8596 412.787 35.9505C413.697 36.0415 414.38 36.36 414.835 36.906C415.381 37.4519 415.654 38.1344 415.654 38.9533C415.745 39.7722 415.563 40.6367 415.108 41.5466C414.653 42.3655 414.061 42.9115 413.333 43.1845C413.06 43.2755 412.56 43.321 411.832 43.321C411.286 43.321 410.695 43.2755 410.058 43.1845C409.512 43.0935 408.875 43.048 408.147 43.048C407.146 43.048 406.19 43.1845 405.281 43.4575C404.644 43.5485 404.189 43.8669 403.916 44.4129C403.734 44.8679 403.597 45.5958 403.506 46.5967C403.415 49.7815 403.643 54.4676 404.189 60.6551C404.735 66.1147 405.008 70.1639 405.008 72.8027C404.917 74.5315 405.053 77.0338 405.417 80.3096L405.69 83.5853C405.872 86.4971 406.054 91.5017 406.236 98.5992C406.418 105.606 406.554 111.93 406.645 117.571C406.645 120.665 406.691 122.94 406.782 124.396C406.782 129.036 406.827 132.494 406.918 134.769C407.009 136.043 406.736 137.044 406.099 137.772C405.554 138.409 404.553 138.773 403.097 138.864L402.005 139ZM463.695 139C462.239 139 461.147 138.727 460.419 138.181C459.782 137.635 459.464 136.725 459.464 135.451V117.571C458.281 116.752 456.051 116.024 452.776 115.387C449.5 114.75 446.406 114.341 443.494 114.159C442.493 116.07 441.765 118.39 441.311 121.12L440.765 123.85C440.674 124.487 440.401 125.897 439.946 128.081C439.491 130.265 438.99 132.176 438.444 133.813C437.898 135.36 437.352 136.589 436.806 137.499C433.349 137.499 431.347 136.589 430.801 134.769C431.802 133.313 432.939 129.036 434.213 121.939L438.717 96.9613C440.719 85.1322 442.539 75.032 444.177 66.6606C445.906 58.2893 447.726 51.2829 449.636 45.6413C451.729 39.3628 453.731 36.2235 455.642 36.2235C457.553 36.2235 459.009 36.5875 460.01 37.3154C460.01 40.9552 460.874 49.736 462.603 63.6579C464.423 77.3068 465.333 86.6336 465.333 91.6382C465.333 96.4608 465.833 103.376 466.834 112.385C467.744 121.575 468.199 128.9 468.199 134.359C468.199 137.453 466.698 139 463.695 139ZM456.597 109.655C457.325 109.655 458.235 109.518 459.327 109.245C459.054 105.242 458.599 100.283 457.962 94.368C455.869 73.8036 454.823 61.2011 454.823 56.5604V55.4685C453.913 56.3784 452.639 60.5186 451.001 67.8891C449.454 75.1685 447.999 82.9939 446.634 91.3652C445.269 99.7366 444.541 105.287 444.45 108.017C448.271 109.109 452.321 109.655 456.597 109.655ZM529.156 142.549C528.246 142.549 527.518 142.094 526.973 141.184C526.427 140.274 526.154 138.955 526.154 137.226L526.017 117.025C525.926 115.296 525.881 112.43 525.881 108.426C525.699 99.964 525.608 90.4098 525.608 79.7636V72.8027C524.789 77.1703 523.378 83.3124 521.376 91.2287C519.375 99.4181 517.964 106.152 517.145 111.429V112.248L516.736 114.841C516.554 116.843 516.099 118.891 515.371 120.983C514.461 123.167 513.051 124.259 511.14 124.259C507.864 124.259 506.226 119.982 506.226 111.429C506.226 106.698 505.726 101.647 504.725 96.2788C503.815 90.8193 502.313 84.1313 500.221 76.2149L496.126 60.9281L495.853 77.3068C495.853 82.2204 496.08 91.5927 496.535 105.424L496.808 114.705L497.081 133.404C497.081 135.315 496.399 137.044 495.034 138.591C492.759 138.591 491.167 137.908 490.257 136.543C489.438 135.087 489.028 132.994 489.028 130.265L489.301 119.073C489.574 114.159 489.711 110.474 489.711 108.017L489.438 81.6745L489.165 55.1955C489.165 51.2829 489.256 45.4138 489.438 37.5884L493.123 35.4046C493.851 35.4956 494.579 36.0415 495.307 37.0425C496.035 37.9524 496.854 39.4538 497.764 41.5466C500.039 47.1882 502.996 58.4713 506.636 75.396C507.182 77.7618 507.546 79.7181 507.728 81.265C508.819 86.5426 509.593 90.5463 510.048 93.2761L512.095 103.786L513.051 99.2816L515.644 88.0895C517.1 81.538 518.283 75.8054 519.193 70.8918C520.194 65.9782 521.149 60.6551 522.059 54.9226C523.06 48.0981 523.697 42.411 523.97 37.8614V37.0425C524.152 35.8596 524.698 34.9496 525.608 34.3127C526.518 33.5847 527.609 33.2208 528.883 33.2208C529.702 33.2208 530.43 33.5847 531.067 34.3127C531.704 35.0406 532.023 35.8141 532.023 36.633C532.023 47.5521 532.432 63.8854 533.251 85.6327C533.706 96.2788 534.024 106.698 534.206 116.889C534.388 121.529 534.479 127.398 534.479 134.496C534.479 136.589 533.933 138.454 532.842 140.092C531.75 141.73 530.521 142.549 529.156 142.549ZM584.179 139C582.723 139 581.631 138.727 580.903 138.181C580.266 137.635 579.947 136.725 579.947 135.451V117.571C578.765 116.752 576.535 116.024 573.259 115.387C569.984 114.75 566.89 114.341 563.978 114.159C562.977 116.07 562.249 118.39 561.794 121.12L561.248 123.85C561.157 124.487 560.884 125.897 560.429 128.081C559.974 130.265 559.474 132.176 558.928 133.813C558.382 135.36 557.836 136.589 557.29 137.499C553.832 137.499 551.831 136.589 551.285 134.769C552.286 133.313 553.423 129.036 554.697 121.939L559.201 96.9613C561.203 85.1322 563.023 75.032 564.661 66.6606C566.389 58.2893 568.209 51.2829 570.12 45.6413C572.213 39.3628 574.215 36.2235 576.126 36.2235C578.037 36.2235 579.492 36.5875 580.493 37.3154C580.493 40.9552 581.358 49.736 583.087 63.6579C584.907 77.3068 585.816 86.6336 585.816 91.6382C585.816 96.4608 586.317 103.376 587.318 112.385C588.228 121.575 588.683 128.9 588.683 134.359C588.683 137.453 587.181 139 584.179 139ZM577.081 109.655C577.809 109.655 578.719 109.518 579.811 109.245C579.538 105.242 579.083 100.283 578.446 94.368C576.353 73.8036 575.307 61.2011 575.307 56.5604V55.4685C574.397 56.3784 573.123 60.5186 571.485 67.8891C569.938 75.1685 568.482 82.9939 567.117 91.3652C565.753 99.7366 565.025 105.287 564.934 108.017C568.755 109.109 572.804 109.655 577.081 109.655ZM635.582 141.32C633.216 141.32 631.169 140.41 629.44 138.591C627.802 136.771 626.892 134.541 626.71 131.903C626.164 128.081 625.8 121.939 625.618 113.476L625.345 105.014C625.345 102.648 624.617 100.374 623.161 98.1897C621.705 95.9149 619.84 94.5955 617.565 94.2315C618.202 113.158 618.521 127.171 618.521 136.27C618.521 138.818 617.611 140.092 615.791 140.092C615.063 140.092 614.335 139.91 613.607 139.546C611.878 138.727 611.15 137.408 611.423 135.588C612.151 130.219 612.515 124.896 612.515 119.619C612.515 115.797 612.379 111.793 612.106 107.607C612.015 105.606 611.969 102.557 611.969 98.4627C611.878 97.1888 611.833 95.1869 611.833 92.4571C611.469 77.5343 611.059 66.2967 610.604 58.7443C610.331 54.1946 609.649 48.3711 608.557 41.2736C608.466 40.9097 608.42 40.3637 608.42 39.6358C608.42 36.815 609.603 35.1771 611.969 34.7221C613.334 34.4492 614.426 34.8586 615.245 35.9505C616.155 36.9515 616.655 38.2709 616.746 39.9087C616.837 41.0916 616.928 42.502 617.019 44.1399C617.11 45.6868 617.156 46.9152 617.156 47.8251L617.292 52.3293C617.474 57.6069 617.565 61.4741 617.565 63.9309V88.226C618.384 86.3151 619.385 83.3578 620.568 79.3542C621.751 75.3505 622.661 71.9382 623.298 69.1175C623.571 67.6616 623.844 65.8872 624.117 63.7944C624.481 61.7015 624.754 60.1092 624.936 59.0172C625.573 53.1937 626.392 48.5076 627.392 44.9588C628.575 40.7732 630.805 37.7249 634.08 35.8141C635.445 34.9951 636.583 34.5857 637.493 34.5857C638.13 34.5857 638.994 34.8131 640.086 35.2681C641.542 35.9051 642.27 37.2699 642.27 39.3628C642.27 40.9097 641.314 41.9106 639.403 42.3656C635.764 43.0025 633.398 45.4138 632.306 49.5995C631.669 52.1473 631.078 54.9226 630.532 57.9253C629.895 61.929 629.349 64.5223 628.894 65.7052C627.347 70.4369 626.483 74.2586 626.301 77.1703C626.028 79.6271 625.618 81.811 625.072 83.7218C624.526 85.5417 623.662 87.0886 622.479 88.3625C624.754 88.7264 626.71 90.3188 628.348 93.1396C629.986 95.9604 631.032 99.6456 631.487 104.195C631.851 107.38 632.443 114.295 633.261 124.942L633.534 127.944C633.807 130.219 634.899 131.493 636.81 131.766C638.266 132.221 639.313 132.812 639.949 133.54C640.586 134.177 640.905 135.087 640.905 136.27C640.905 137.726 640.404 138.909 639.403 139.819C638.403 140.82 637.129 141.32 635.582 141.32ZM686.935 139C685.479 139 684.387 138.727 683.659 138.181C683.022 137.635 682.704 136.725 682.704 135.451V117.571C681.521 116.752 679.291 116.024 676.016 115.387C672.74 114.75 669.646 114.341 666.734 114.159C665.733 116.07 665.006 118.39 664.551 121.12L664.005 123.85C663.914 124.487 663.641 125.897 663.186 128.081C662.731 130.265 662.23 132.176 661.684 133.813C661.138 135.36 660.592 136.589 660.046 137.499C656.589 137.499 654.587 136.589 654.041 134.769C655.042 133.313 656.179 129.036 657.453 121.939L661.957 96.9613C663.959 85.1322 665.779 75.032 667.417 66.6606C669.146 58.2893 670.966 51.2829 672.876 45.6413C674.969 39.3628 676.971 36.2235 678.882 36.2235C680.793 36.2235 682.249 36.5875 683.25 37.3154C683.25 40.9552 684.114 49.736 685.843 63.6579C687.663 77.3068 688.573 86.6336 688.573 91.6382C688.573 96.4608 689.073 103.376 690.074 112.385C690.984 121.575 691.439 128.9 691.439 134.359C691.439 137.453 689.938 139 686.935 139ZM679.837 109.655C680.565 109.655 681.475 109.518 682.567 109.245C682.294 105.242 681.839 100.283 681.202 94.368C679.109 73.8036 678.063 61.2011 678.063 56.5604V55.4685C677.153 56.3784 675.879 60.5186 674.241 67.8891C672.694 75.1685 671.239 82.9939 669.874 91.3652C668.509 99.7366 667.781 105.287 667.69 108.017C671.512 109.109 675.561 109.655 679.837 109.655Z" fill="#70624B"/>
<path d="M4.20661 175.327H7.05226V201.881H7.2997L26.0593 175.327H28.874V207H25.982V180.477H25.7345L7.00586 207H4.20661V175.327ZM46.0051 207V175.327H48.8972V189.849H66.8681V175.327H69.7601V207H66.8681V192.447H48.8972V207H46.0051ZM84.9503 177.925V175.327H107.917V177.925H97.8794V207H94.9874V177.925H84.9503ZM123.138 207V175.327H141.511V177.925H126.03V189.849H140.536V192.447H126.03V204.402H141.82V207H123.138ZM157.706 207V175.327H167.929C170.176 175.327 172.053 175.76 173.558 176.626C175.074 177.482 176.213 178.647 176.976 180.121C177.749 181.595 178.136 183.255 178.136 185.101C178.136 186.946 177.754 188.612 176.992 190.096C176.229 191.571 175.094 192.741 173.589 193.607C172.084 194.463 170.212 194.891 167.975 194.891H159.933V192.292H167.898C169.558 192.292 170.934 191.983 172.027 191.364C173.12 190.735 173.935 189.88 174.471 188.797C175.017 187.715 175.29 186.482 175.29 185.101C175.29 183.719 175.017 182.487 174.471 181.405C173.935 180.322 173.115 179.471 172.012 178.853C170.919 178.234 169.532 177.925 167.851 177.925H160.598V207H157.706ZM190.45 207H187.418L198.94 175.327H202.033L213.555 207H210.524L200.595 179.085H200.378L190.45 207ZM192.63 194.86H208.343V197.458H192.63V194.86ZM246.051 207L235.148 192.06H230.586V207H227.694V175.327H230.586V189.478H233.447L245.123 175.327H248.556L236.818 189.601L249.515 207H246.051ZM261.748 177.925V175.327H284.714V177.925H274.677V207H271.785V177.925H261.748ZM299.935 175.327H302.781V201.881H303.028L321.788 175.327H324.602V207H321.71V180.477H321.463L302.734 207H299.935V175.327ZM341.734 207V175.327H352.42C354.482 175.327 356.199 175.688 357.57 176.409C358.952 177.131 359.988 178.116 360.679 179.363C361.37 180.611 361.715 182.028 361.715 183.616C361.715 184.936 361.493 186.065 361.05 187.003C360.607 187.941 360.003 188.699 359.241 189.277C358.478 189.854 357.627 190.272 356.689 190.529V190.777C357.709 190.849 358.699 191.21 359.658 191.859C360.617 192.499 361.406 193.396 362.024 194.55C362.643 195.705 362.952 197.087 362.952 198.695C362.952 200.293 362.597 201.721 361.885 202.979C361.174 204.227 360.081 205.211 358.606 205.933C357.142 206.644 355.276 207 353.008 207H341.734ZM344.626 204.402H353.008C355.451 204.402 357.256 203.861 358.421 202.778C359.596 201.695 360.184 200.334 360.184 198.695C360.184 197.489 359.89 196.396 359.302 195.416C358.725 194.427 357.905 193.643 356.843 193.066C355.792 192.488 354.554 192.2 353.132 192.2H344.626V204.402ZM344.626 189.632H352.683C353.931 189.632 355.024 189.375 355.962 188.859C356.9 188.343 357.632 187.632 358.158 186.725C358.684 185.817 358.947 184.781 358.947 183.616C358.947 181.936 358.4 180.57 357.307 179.518C356.214 178.456 354.585 177.925 352.42 177.925H344.626V189.632ZM378.641 207V175.327H381.533V189.849H399.504V175.327H402.396V207H399.504V192.447H381.533V207H378.641ZM421.592 189.246H431.382C433.495 189.246 435.289 189.601 436.764 190.313C438.248 191.024 439.382 192.029 440.166 193.329C440.95 194.617 441.341 196.143 441.341 197.906C441.341 199.721 440.95 201.309 440.166 202.67C439.393 204.031 438.264 205.093 436.779 205.856C435.305 206.619 433.505 207 431.382 207H419.504V175.327H422.396V204.448H431.382C432.897 204.448 434.181 204.154 435.232 203.567C436.294 202.969 437.104 202.175 437.661 201.185C438.217 200.185 438.496 199.071 438.496 197.844C438.496 196.143 437.867 194.72 436.609 193.576C435.361 192.421 433.619 191.844 431.382 191.844H421.592V189.246ZM447.961 175.327V207H445.068V175.327H447.961ZM465.088 175.327H467.933V201.881H468.181L486.94 175.327H489.755V207H486.863V180.477H486.616L467.887 207H465.088V175.327ZM480.259 167.408H482.858C482.858 168.883 482.368 170.079 481.388 170.996C480.419 171.914 479.094 172.373 477.414 172.373C475.754 172.373 474.439 171.914 473.47 170.996C472.501 170.079 472.016 168.883 472.016 167.408H474.615C474.615 168.213 474.831 168.893 475.264 169.45C475.707 169.996 476.424 170.269 477.414 170.269C478.404 170.269 479.125 169.996 479.579 169.45C480.033 168.893 480.259 168.213 480.259 167.408ZM546.203 207L535.299 192.06H530.737V207H527.845V175.327H530.737V189.478H533.598L545.275 175.327H548.708L536.97 189.601L549.667 207H546.203ZM563.817 207V175.327H574.504C576.566 175.327 578.282 175.688 579.654 176.409C581.035 177.131 582.071 178.116 582.762 179.363C583.453 180.611 583.798 182.028 583.798 183.616C583.798 184.936 583.577 186.065 583.133 187.003C582.69 187.941 582.087 188.699 581.324 189.277C580.561 189.854 579.71 190.272 578.772 190.529V190.777C579.793 190.849 580.783 191.21 581.742 191.859C582.7 192.499 583.489 193.396 584.108 194.55C584.726 195.705 585.036 197.087 585.036 198.695C585.036 200.293 584.68 201.721 583.969 202.979C583.257 204.227 582.164 205.211 580.69 205.933C579.226 206.644 577.36 207 575.091 207H563.817ZM566.709 204.402H575.091C577.535 204.402 579.339 203.861 580.504 202.778C581.68 201.695 582.267 200.334 582.267 198.695C582.267 197.489 581.973 196.396 581.386 195.416C580.808 194.427 579.989 193.643 578.927 193.066C577.875 192.488 576.638 192.2 575.215 192.2H566.709V204.402ZM566.709 189.632H574.767C576.014 189.632 577.107 189.375 578.045 188.859C578.983 188.343 579.716 187.632 580.241 186.725C580.767 185.817 581.03 184.781 581.03 183.616C581.03 181.936 580.484 180.57 579.391 179.518C578.298 178.456 576.669 177.925 574.504 177.925H566.709V189.632ZM600.725 207V175.327H619.098V177.925H603.617V189.849H618.123V192.447H603.617V204.402H619.407V207H600.725ZM660.1 185.225H657.192C656.976 184.142 656.584 183.142 656.017 182.224C655.46 181.296 654.759 180.487 653.913 179.796C653.068 179.105 652.109 178.569 651.037 178.188C649.965 177.806 648.805 177.616 647.557 177.616C645.557 177.616 643.732 178.136 642.082 179.178C640.443 180.219 639.128 181.75 638.139 183.771C637.159 185.781 636.669 188.246 636.669 191.163C636.669 194.102 637.159 196.576 638.139 198.587C639.128 200.597 640.443 202.123 642.082 203.165C643.732 204.196 645.557 204.711 647.557 204.711C648.805 204.711 649.965 204.52 651.037 204.139C652.109 203.757 653.068 203.226 653.913 202.546C654.759 201.855 655.46 201.046 656.017 200.118C656.584 199.19 656.976 198.185 657.192 197.102H660.1C659.842 198.556 659.357 199.912 658.646 201.17C657.945 202.417 657.048 203.51 655.955 204.448C654.872 205.386 653.625 206.118 652.212 206.644C650.8 207.17 649.248 207.433 647.557 207.433C644.897 207.433 642.536 206.768 640.474 205.438C638.412 204.098 636.793 202.211 635.618 199.778C634.453 197.344 633.87 194.473 633.87 191.163C633.87 187.854 634.453 184.982 635.618 182.549C636.793 180.116 638.412 178.234 640.474 176.904C642.536 175.564 644.897 174.894 647.557 174.894C649.248 174.894 650.8 175.157 652.212 175.682C653.625 176.198 654.872 176.93 655.955 177.879C657.048 178.817 657.945 179.91 658.646 181.157C659.357 182.405 659.842 183.761 660.1 185.225ZM673.685 177.925V175.327H696.652V177.925H686.614V207H683.722V177.925H673.685Z" fill="#9C8C6B"/>
</svg>
