<svg width="443" height="221" viewBox="0 0 443 221" fill="none" xmlns="http://www.w3.org/2000/svg">
<path d="M11.4004 73.5393C10.63 73.5393 10.0137 73.1798 9.55144 72.4607C9.14056 71.6903 8.93512 70.7658 8.93512 69.6873C8.93512 67.9924 9.03784 65.9123 9.24328 63.447L9.39736 61.444L9.55144 57.3609C9.55144 55.5633 9.37168 51.5572 9.01216 45.3426C8.65264 39.1281 8.47288 35.122 8.47288 33.3244C8.47288 33.1703 8.47288 32.8879 8.47288 32.477C8.52424 32.0147 8.54992 31.3214 8.54992 30.3969C8.60128 29.3697 8.62696 28.1114 8.62696 26.6219C8.62696 22.8727 8.37016 20.4844 7.85656 19.4572C7.5484 19.4572 6.88072 19.5343 5.85352 19.6883L3.6964 19.8424C3.02872 19.8424 2.43808 19.6627 1.92448 19.3031C1.41088 18.8923 1.15408 18.3787 1.15408 17.7623C1.15408 17.146 1.7704 16.6067 3.00304 16.1445C4.80064 15.5282 7.85656 15.0916 12.1708 14.8348C13.917 14.7321 14.9699 14.6807 15.3294 14.6807C15.9458 14.6807 16.5107 14.8862 17.0243 15.2971C17.5379 15.7079 17.7947 16.2215 17.7947 16.8379C17.7947 17.4542 17.5636 17.9678 17.1014 18.3787C16.6905 18.7382 16.1512 18.9179 15.4835 18.9179L14.0968 18.8409C13.6859 18.7895 13.2237 18.7639 12.7101 18.7639H11.9397C12.2992 22.2563 12.479 25.415 12.479 28.2398L12.4019 33.1703C12.3506 34.6598 12.3249 36.329 12.3249 38.1779C12.3249 40.6432 12.4276 43.5964 12.633 47.0375C12.8898 51.3004 13.0182 54.2536 13.0182 55.8971C13.0182 57.8488 13.121 60.16 13.3264 62.8307C13.5318 65.5528 13.6346 67.864 13.6346 69.7643C13.6346 72.281 12.8898 73.5393 11.4004 73.5393ZM42.5799 73C41.7582 73 41.1418 72.8459 40.731 72.5378C40.3714 72.2296 40.1917 71.716 40.1917 70.997V60.9047C39.524 60.4425 38.2657 60.0316 36.4167 59.6721C34.5678 59.3126 32.8215 59.0814 31.178 58.9787C30.613 60.0573 30.2022 61.367 29.9454 62.9078L29.6372 64.4486C29.5858 64.8081 29.4318 65.6042 29.175 66.8368C28.9182 68.0694 28.6357 69.148 28.3275 70.0725C28.0194 70.9456 27.7112 71.639 27.403 72.1526C25.4514 72.1526 24.3214 71.639 24.0133 70.6118C24.5782 69.79 25.2202 67.3761 25.9393 63.37L28.4816 49.2717C29.6115 42.5949 30.6387 36.8939 31.5632 32.1688C32.539 27.4437 33.5662 23.489 34.6448 20.3047C35.8261 16.7608 36.956 14.9889 38.0346 14.9889C39.1131 14.9889 39.9349 15.1943 40.4998 15.6052C40.4998 17.6596 40.9878 22.6159 41.9636 30.4739C42.9908 38.1779 43.5044 43.4423 43.5044 46.2671C43.5044 48.9892 43.7869 52.8926 44.3518 57.9772C44.8654 63.1646 45.1222 67.299 45.1222 70.3806C45.1222 72.1269 44.2748 73 42.5799 73ZM38.5738 56.4364C38.9847 56.4364 39.4983 56.3594 40.1146 56.2053C39.9606 53.9454 39.7038 51.1463 39.3442 47.8079C38.163 36.2006 37.5723 29.0872 37.5723 26.4679V25.8515C37.0587 26.3651 36.3397 28.702 35.4152 32.8622C34.5421 36.971 33.7203 41.3879 32.9499 46.113C32.1795 50.8382 31.7686 53.9711 31.7173 55.5119C33.8744 56.1282 36.1599 56.4364 38.5738 56.4364ZM58.8053 73.7704C58.0349 73.7704 57.3415 73.4366 56.7252 72.7689C56.1089 72.1012 55.8264 71.3565 55.8777 70.5347C56.0318 67.9154 56.1089 65.2446 56.1089 62.5226C56.1089 60.16 56.0575 56.5648 55.9548 51.737C55.9034 49.5285 55.7237 46.2158 55.4155 41.7988C55.3641 40.9257 55.2871 39.6674 55.1844 38.0238C55.0817 36.329 55.0046 34.8395 54.9533 33.5555C54.9019 32.6824 54.8762 31.3727 54.8762 29.6265L54.9533 21.7684C54.9533 21.3062 54.9019 20.6642 54.7992 19.8424L54.7221 18.0705C54.7221 17.2487 54.9276 16.6067 55.3385 16.1445C55.8007 15.6823 56.3913 15.4511 57.1104 15.4511C58.5998 15.4511 59.4473 16.1445 59.6527 17.5312C59.8581 19.072 59.9609 20.2276 59.9609 20.998C59.9609 21.9225 59.8838 22.847 59.7297 23.7714C59.4729 25.6718 59.3445 27.3923 59.3445 28.9331L59.4216 31.2443C59.627 35.9694 59.7297 40.3094 59.7297 44.2641V53.4318C59.7297 55.024 59.7811 57.4122 59.8838 60.5966L60.3461 60.6736L61.2705 57.669C62.8113 52.4817 64.2751 47.7566 65.6618 43.4937C66.3809 41.4906 67.1513 38.3834 67.973 34.1719C68.3325 32.3229 68.6664 30.8334 68.9745 29.7035L72.8265 15.8363C73.1861 15.1687 73.6226 14.6807 74.1362 14.3726C74.6498 14.0131 75.1634 13.859 75.677 13.9103C76.2933 14.0644 76.884 14.501 77.4489 15.22C78.0139 15.8877 78.2707 16.5554 78.2193 17.2231C78.168 19.0207 78.0139 20.8953 77.7571 22.847C77.2949 29.267 77.0381 33.2987 76.9867 34.9422C76.7813 41.8245 76.6785 46.9862 76.6785 50.4273C76.6785 52.0708 76.8069 54.6645 77.0637 58.2083C77.3205 61.7008 77.4746 64.012 77.526 65.1419L77.8341 68.9939C77.8855 70.0725 77.6287 70.9199 77.0637 71.5362C76.4988 72.1526 75.7541 72.4607 74.8296 72.4607C74.2646 72.4607 73.7767 72.281 73.3658 71.9214C72.9549 71.5106 72.7238 70.9713 72.6725 70.3036V69.6102L72.7495 54.1252V51.3518C72.6468 48.681 72.5441 44.5722 72.4413 39.0254V35.8667V30.7821C72.39 30.7307 72.2616 30.7051 72.0561 30.7051C71.748 30.7564 71.2857 31.9377 70.6694 34.2489C70.1045 36.5087 69.5652 38.7942 69.0516 41.1054C68.538 43.3653 68.2041 44.8034 68.0501 45.4197C67.5878 47.6282 67.3053 48.8865 67.2026 49.1946C65.7645 54.0738 64.6089 58.157 63.7358 61.444C62.8627 64.6797 62.1437 67.9667 61.5787 71.3051C61.2705 72.9486 60.3461 73.7704 58.8053 73.7704ZM65.4307 9.9813C63.5817 9.87857 62.118 9.31361 61.0394 8.28642C59.9609 7.25922 59.3702 5.8725 59.2675 4.12626V3.89514C59.2675 3.02202 59.7297 2.43138 60.6542 2.12322C61.1165 1.96914 61.6301 1.99482 62.195 2.20026C62.8113 2.4057 63.2222 2.71386 63.4277 3.12473C63.5304 3.27882 63.6074 3.48426 63.6588 3.74106C63.7101 3.9465 63.7615 4.12626 63.8129 4.28034C64.121 5.05074 64.5576 5.43594 65.1225 5.43594C65.4821 5.43594 65.8159 5.28186 66.1241 4.9737C66.7917 4.25466 67.3567 3.27882 67.8189 2.04618C68.3325 0.864896 68.8718 0.351296 69.4368 0.505377C70.0017 0.659458 70.464 0.993298 70.8235 1.5069C71.2344 1.96914 71.3628 2.43138 71.2087 2.89362C70.7465 4.28034 70.2842 5.43594 69.822 6.36041C69.3597 7.28489 68.7177 8.08097 67.896 8.74865C67.5365 9.00545 67.0742 9.26225 66.5093 9.51905C65.9957 9.72449 65.6361 9.87857 65.4307 9.9813ZM102.949 74.1556C102.281 74.1556 101.767 73.8988 101.408 73.3852C101.1 72.923 100.946 72.3323 100.946 71.6133C100.946 60.879 100.74 51.814 100.329 44.4182C99.0966 44.2127 98.2235 44.11 97.7099 44.11C95.6041 44.11 94.089 44.2898 93.1645 44.6493C93.1645 47.5254 93.3956 51.8654 93.8579 57.669C94.2687 63.8322 94.4742 68.1978 94.4742 70.7658C94.4742 71.2794 94.3201 71.7674 94.0119 72.2296C93.7038 72.6405 93.3186 72.8459 92.8563 72.8459C92.1887 72.8459 91.5723 71.6646 91.0074 69.3021C90.1856 65.8096 89.5179 58.4908 89.0043 47.3457C88.6448 39.7958 88.4651 31.6809 88.4651 23.0011C88.4137 21.4089 88.388 19.1491 88.388 16.2215C88.388 15.2971 88.8246 14.8348 89.6977 14.8348C90.2113 14.8348 90.7249 14.9632 91.2385 15.22C91.8035 15.4768 92.2143 15.7593 92.4711 16.0675C92.2657 17.711 92.163 19.637 92.163 21.8455C92.163 24.0026 92.2657 26.6219 92.4711 29.7035C92.6252 33.2474 92.7023 35.9181 92.7023 37.7157V39.1024C92.6509 39.5133 92.6252 40.0012 92.6252 40.5662C92.6252 41.0798 92.6766 41.7474 92.7793 42.5692C93.0875 42.5692 93.6011 42.5435 94.3201 42.4922C95.0391 42.4408 95.7582 42.3638 96.4772 42.261C98.1721 42.107 99.4304 42.0299 100.252 42.0299C100.252 37.5616 100.201 33.4271 100.098 29.6265L99.944 16.7608V14.6807C100.612 14.6807 101.202 14.8091 101.716 15.0659C102.23 15.2714 102.615 15.5539 102.872 15.9134C103.334 16.4783 103.616 17.4542 103.719 18.8409V20.6128C103.719 25.0298 103.976 33.4785 104.489 45.959C104.952 57.2582 105.183 65.7326 105.183 71.3822C105.183 72.1012 104.952 72.7432 104.489 73.3082C104.078 73.8731 103.565 74.1556 102.949 74.1556ZM131.691 73C130.869 73 130.252 72.8459 129.842 72.5378C129.482 72.2296 129.302 71.716 129.302 70.997V60.9047C128.635 60.4425 127.376 60.0316 125.527 59.6721C123.678 59.3126 121.932 59.0814 120.289 58.9787C119.724 60.0573 119.313 61.367 119.056 62.9078L118.748 64.4486C118.696 64.8081 118.542 65.6042 118.286 66.8368C118.029 68.0694 117.746 69.148 117.438 70.0725C117.13 70.9456 116.822 71.639 116.514 72.1526C114.562 72.1526 113.432 71.639 113.124 70.6118C113.689 69.79 114.331 67.3761 115.05 63.37L117.592 49.2717C118.722 42.5949 119.749 36.8939 120.674 32.1688C121.65 27.4437 122.677 23.489 123.755 20.3047C124.937 16.7608 126.067 14.9889 127.145 14.9889C128.224 14.9889 129.045 15.1943 129.61 15.6052C129.61 17.6596 130.098 22.6159 131.074 30.4739C132.101 38.1779 132.615 43.4423 132.615 46.2671C132.615 48.9892 132.897 52.8926 133.462 57.9772C133.976 63.1646 134.233 67.299 134.233 70.3806C134.233 72.1269 133.385 73 131.691 73ZM127.684 56.4364C128.095 56.4364 128.609 56.3594 129.225 56.2053C129.071 53.9454 128.814 51.1463 128.455 47.8079C127.274 36.2006 126.683 29.0872 126.683 26.4679V25.8515C126.169 26.3651 125.45 28.702 124.526 32.8622C123.653 36.971 122.831 41.3879 122.061 46.113C121.29 50.8382 120.879 53.9711 120.828 55.5119C122.985 56.1282 125.271 56.4364 127.684 56.4364ZM171.152 74.2326C169.714 74.2326 168.379 73.8988 167.146 73.2311C165.965 72.5634 164.938 71.6646 164.065 70.5347C163.294 69.4562 162.601 68.0951 161.985 66.4516C161.368 64.7567 160.906 63.0105 160.598 61.2129C159.982 58.1826 159.571 54.2022 159.365 49.2717C159.314 48.0904 159.288 46.0617 159.288 43.1855V38.332C159.34 36.9453 159.365 35.5072 159.365 34.0178C159.365 30.9875 159.545 28.5993 159.905 26.8531C159.75 26.0827 159.673 25.2866 159.673 24.4648C159.673 21.3832 160.829 18.8923 163.14 16.9919C165.451 15.0916 168.379 14.1415 171.923 14.1415C173.258 14.1415 174.491 14.501 175.621 15.22C176.751 15.9391 177.316 16.8379 177.316 17.9164C177.316 18.43 177.11 18.8409 176.699 19.1491C176.288 19.4572 175.775 19.6113 175.158 19.6113C174.645 19.6113 174.08 19.5343 173.464 19.3802C172.899 19.2261 172.539 18.995 172.385 18.6868H171.384V18.5327C169.483 18.5327 167.891 18.9436 166.607 19.7654C165.683 20.4331 164.964 21.5373 164.45 23.0781C164.244 23.6431 164.09 24.3621 163.988 25.2352C163.885 26.1083 163.834 26.9044 163.834 27.6234C163.782 28.0343 163.757 28.8561 163.757 30.0887L163.911 32.7851L163.988 35.4045C163.988 36.1749 163.885 37.0737 163.68 38.1009C163.423 39.3849 163.294 40.2837 163.294 40.7973V42.6462C163.294 44.6493 163.371 47.397 163.525 50.8895C163.577 53.817 163.911 56.7446 164.527 59.6721C164.989 62.3942 165.862 64.7054 167.146 66.6057C168.379 68.5574 170.048 69.5332 172.154 69.5332C173.027 69.5332 174.106 69.071 175.39 68.1465C176.776 67.222 177.752 66.7598 178.317 66.7598C179.036 66.7598 179.781 67.145 180.551 67.9154C180.551 69.8157 179.832 71.2794 178.394 72.3066C177.059 73.2311 175.467 73.8218 173.618 74.0786C172.59 74.1813 171.769 74.2326 171.152 74.2326ZM192.409 73.4622C191.433 73.4622 190.586 73.3338 189.867 73.077C188.993 72.8202 188.557 72.1012 188.557 70.9199V26.1597C188.557 25.2866 188.403 23.9769 188.095 22.2307C187.735 20.6385 187.555 19.3288 187.555 18.3016V18.0705C188.428 16.6324 189.07 15.7079 189.481 15.2971C190.2 15.2971 191.151 15.1943 192.332 14.9889C193.41 14.7835 194.361 14.6807 195.182 14.6807C196.004 14.6807 196.8 14.9375 197.571 15.4511C198.341 15.9134 198.726 16.4783 198.726 17.146C198.726 18.6868 197.545 19.4572 195.182 19.4572H194.104C193.796 19.4059 193.436 19.3802 193.025 19.3802C192.563 19.3802 192.28 19.4059 192.178 19.4572C192.178 21.2035 192.28 23.3092 192.486 25.7745L192.64 27.9316L192.794 32.1688C192.794 33.1446 192.717 34.6341 192.563 36.6371L192.409 40.9514L193.487 40.7202C194.515 40.4121 195.362 40.258 196.03 40.258C196.595 40.258 197.108 40.4891 197.571 40.9514C198.033 41.3622 198.264 41.8502 198.264 42.4151C198.264 43.0314 198.058 43.5964 197.648 44.11C197.288 44.5722 196.826 44.8034 196.261 44.8034L195.336 44.7263H194.335C193.564 44.7263 193.025 44.9061 192.717 45.2656V69.071L197.031 68.8398C199.959 68.8398 201.423 69.5075 201.423 70.8429V71.151C201.114 71.7674 200.549 72.281 199.728 72.6918C198.906 73.0514 198.11 73.2825 197.339 73.3852L194.797 73.4622H192.409ZM213.62 73.3852C213.055 73.3852 212.592 73.1541 212.233 72.6918C211.925 72.1782 211.771 71.5619 211.771 70.8429L211.925 57.9002C212.079 51.6342 212.156 46.7807 212.156 43.3396C212.156 31.3727 211.488 22.205 210.153 15.8363C210.923 14.6551 211.899 14.0644 213.08 14.0644C214.981 14.0644 216.701 14.501 218.242 15.3741C219.834 16.1959 221.144 17.3258 222.171 18.7639C224.174 21.7427 225.176 25.0811 225.176 28.7791C225.176 32.6311 224.354 36.0722 222.71 39.1024C221.067 42.1326 218.678 44.4952 215.546 46.1901L215.7 53.9711L215.854 58.0542C215.905 58.9274 215.931 60.1857 215.931 61.8292C216.085 65.2703 216.162 68.0694 216.162 70.2266C216.162 71.2024 215.956 71.9728 215.546 72.5378C215.135 73.1027 214.493 73.3852 213.62 73.3852ZM215.391 42.4922C217.394 40.5918 218.858 38.6145 219.783 36.5601C220.759 34.4543 221.246 32.0918 221.246 29.4724V29.3954C221.246 28.2141 221.118 26.7247 220.861 24.9271C220.707 24.3107 220.425 23.6944 220.014 23.0781C219.603 22.4618 219.372 22.1023 219.32 21.9995C218.961 21.4859 218.011 20.6899 216.47 19.6113L214.467 18.1475C214.467 20.7669 214.621 24.8243 214.929 30.3199L215.391 42.4922ZM239.126 73.4622C238.151 73.4622 237.303 73.3338 236.584 73.077C235.711 72.8202 235.274 72.1012 235.274 70.9199V26.1597C235.274 25.2866 235.12 23.9769 234.812 22.2307C234.453 20.6385 234.273 19.3288 234.273 18.3016V18.0705C235.146 16.6324 235.788 15.7079 236.199 15.2971C236.918 15.2971 237.868 15.1943 239.049 14.9889C240.128 14.7835 241.078 14.6807 241.9 14.6807C242.722 14.6807 243.518 14.9375 244.288 15.4511C245.058 15.9134 245.444 16.4783 245.444 17.146C245.444 18.6868 244.262 19.4572 241.9 19.4572H240.821C240.513 19.4059 240.154 19.3802 239.743 19.3802C239.28 19.3802 238.998 19.4059 238.895 19.4572C238.895 21.2035 238.998 23.3092 239.203 25.7745L239.357 27.9316L239.512 32.1688C239.512 33.1446 239.435 34.6341 239.28 36.6371L239.126 40.9514L240.205 40.7202C241.232 40.4121 242.08 40.258 242.747 40.258C243.312 40.258 243.826 40.4891 244.288 40.9514C244.75 41.3622 244.981 41.8502 244.981 42.4151C244.981 43.0314 244.776 43.5964 244.365 44.11C244.006 44.5722 243.543 44.8034 242.978 44.8034L242.054 44.7263H241.052C240.282 44.7263 239.743 44.9061 239.435 45.2656V69.071L243.749 68.8398C246.676 68.8398 248.14 69.5075 248.14 70.8429V71.151C247.832 71.7674 247.267 72.281 246.445 72.6918C245.623 73.0514 244.827 73.2825 244.057 73.3852L241.515 73.4622H239.126ZM261.878 73C260.234 73 259.002 72.8716 258.18 72.6148C257.666 72.4607 257.307 72.1782 257.101 71.7674C256.947 71.3565 256.87 70.7915 256.87 70.0725C256.819 68.9939 256.793 67.4788 256.793 65.5271C256.793 63.9863 256.845 61.8806 256.947 59.2098L257.024 53.0466C257.076 51.9167 257.101 50.2475 257.101 48.039C257.101 46.3955 257.076 45.1629 257.024 44.3411L256.87 34.7882C256.87 29.8576 256.819 26.1597 256.716 23.6944C256.665 22.3077 256.639 20.2533 256.639 17.5312C256.639 16.5554 256.793 15.9134 257.101 15.6052C257.461 15.2971 258.154 15.1173 259.181 15.0659L261.878 14.9889C264.035 14.8348 266.141 14.7578 268.195 14.7578C268.966 14.7578 269.685 15.0146 270.352 15.5282C270.712 15.8363 270.892 16.2472 270.892 16.7608C270.892 17.3258 270.609 17.7623 270.044 18.0705C269.12 18.5327 268.221 18.7639 267.348 18.7639C264.009 18.7639 262.032 18.8666 261.416 19.072C260.851 19.2775 260.568 19.7911 260.568 20.6128C260.568 21.3832 260.568 21.9995 260.568 22.4618L260.645 25.6975C260.748 28.5736 260.799 30.7307 260.799 32.1688C260.799 33.9664 260.774 35.3274 260.722 36.2519C260.671 36.5601 260.645 36.8426 260.645 37.0994C260.697 37.3562 260.722 37.5873 260.722 37.7927C260.774 38.1522 260.799 38.8199 260.799 39.7958C263.521 39.6417 265.678 40.2066 267.271 41.4906C268.811 42.7746 270.147 44.9061 271.277 47.885C272.407 50.8638 272.972 53.9711 272.972 57.2068C272.972 58.1826 272.946 58.9017 272.895 59.3639C272.535 62.3942 271.611 65.0649 270.121 67.3761C268.94 69.071 267.656 70.3293 266.269 71.151C266.012 71.3051 265.601 71.5619 265.036 71.9214C264.472 72.2296 263.932 72.4864 263.419 72.6918C262.905 72.8973 262.391 73 261.878 73ZM261.416 68.4546C263.11 68.1978 264.549 67.4788 265.73 66.2975C266.962 65.1162 267.759 63.6011 268.118 61.7522C268.58 60.1086 268.811 58.2597 268.811 56.2053C268.811 53.8941 268.529 51.6086 267.964 49.3487C267.759 48.527 267.425 47.7309 266.962 46.9605C266.5 46.1901 266.012 45.471 265.499 44.8034C265.036 44.1357 264.703 43.6478 264.497 43.3396C263.932 43.1342 263.367 43.0314 262.802 43.0314L260.876 43.1085C260.979 46.2928 261.082 51.1206 261.184 57.592L261.416 68.4546ZM283.621 73.3852C283.056 73.3852 282.593 73.1541 282.234 72.6918C281.926 72.1782 281.772 71.5619 281.772 70.8429L281.926 57.9002C282.08 51.6342 282.157 46.7807 282.157 43.3396C282.157 31.3727 281.489 22.205 280.154 15.8363C280.924 14.6551 281.9 14.0644 283.081 14.0644C284.982 14.0644 286.702 14.501 288.243 15.3741C289.835 16.1959 291.145 17.3258 292.172 18.7639C294.175 21.7427 295.177 25.0811 295.177 28.7791C295.177 32.6311 294.355 36.0722 292.711 39.1024C291.068 42.1326 288.68 44.4952 285.547 46.1901L285.701 53.9711L285.855 58.0542C285.906 58.9274 285.932 60.1857 285.932 61.8292C286.086 65.2703 286.163 68.0694 286.163 70.2266C286.163 71.2024 285.957 71.9728 285.547 72.5378C285.136 73.1027 284.494 73.3852 283.621 73.3852ZM285.392 42.4922C287.396 40.5918 288.859 38.6145 289.784 36.5601C290.76 34.4543 291.248 32.0918 291.248 29.4724V29.3954C291.248 28.2141 291.119 26.7247 290.862 24.9271C290.708 24.3107 290.426 23.6944 290.015 23.0781C289.604 22.4618 289.373 22.1023 289.322 21.9995C288.962 21.4859 288.012 20.6899 286.471 19.6113L284.468 18.1475C284.468 20.7669 284.622 24.8243 284.93 30.3199L285.392 42.4922ZM319.913 73.3852C318.732 73.3852 318.038 72.7946 317.833 71.6133C317.576 69.6616 317.448 67.8126 317.448 66.0664C317.294 62.1117 317.165 58.0029 317.063 53.74C317.011 49.4258 316.985 46.2928 316.985 44.3411C315.856 44.8547 314.957 45.5738 314.289 46.4982C313.673 47.3714 313.082 48.5013 312.517 49.888C311.593 52.4046 311.13 54.8956 311.13 57.3609V59.2869C311.13 59.595 311.105 60.5452 311.053 62.1374C311.002 63.7295 310.848 65.4758 310.591 67.3761C310.283 69.9441 308.999 71.8701 306.739 73.1541C306.38 73.3595 305.917 73.4622 305.352 73.4622C304.685 73.4622 304.12 73.3082 303.658 73C303.247 72.6405 303.118 72.1526 303.272 71.5362C303.375 71.1767 303.529 70.9199 303.735 70.7658C303.94 70.6118 304.223 70.4577 304.582 70.3036C304.993 70.1495 305.301 69.9954 305.507 69.8414C306.277 69.1223 306.662 68.1465 306.662 66.9138L306.739 60.4425C306.842 57.9258 306.97 55.9998 307.124 54.6645C307.278 53.2778 307.664 51.6856 308.28 49.888C308.485 49.2203 308.973 48.1674 309.744 46.7294C310.514 45.2399 311.079 44.2898 311.439 43.8789C308.717 42.5435 306.816 40.8743 305.738 38.8713C304.71 36.8682 304.197 33.9407 304.197 30.0887C304.197 27.0585 304.736 24.0796 305.815 21.1521C306.893 18.2759 308.665 16.4527 311.13 15.6823L314.52 14.5267C314.982 14.3212 315.496 14.2185 316.061 14.2185C317.14 14.2185 318.372 14.6807 319.759 15.6052C320.632 16.1188 321.069 16.9663 321.069 18.1475C320.76 22.4618 320.606 25.7231 320.606 27.9316V30.7821V37.0994V45.0345C320.606 50.4786 320.658 54.5874 320.76 57.3609C320.812 59.4666 320.889 61.3413 320.992 62.9848C321.094 64.6283 321.171 65.9894 321.223 67.0679L321.454 71.3051V71.7674C321.454 72.435 321.351 72.8716 321.146 73.077C320.94 73.2825 320.529 73.3852 319.913 73.3852ZM316.677 17.4542C316.421 17.5569 315.83 17.7623 314.905 18.0705C314.032 18.3787 313.262 18.7382 312.594 19.1491C311.824 19.5086 311.105 20.279 310.437 21.4603C309.821 22.5902 309.333 23.7971 308.973 25.0811C308.614 26.3651 308.46 27.341 308.511 28.0086L308.665 31.3984C308.665 32.9906 308.691 34.2489 308.742 35.1734C308.794 36.6114 309.204 37.8184 309.975 38.7942C310.797 39.7187 311.927 40.3607 313.365 40.7202C313.93 40.8743 314.572 41.1054 315.291 41.4136C316.061 41.6704 316.626 41.8758 316.985 42.0299L316.677 17.4542ZM345.64 74.1556C344.972 74.1556 344.458 73.8988 344.099 73.3852C343.791 72.923 343.637 72.3323 343.637 71.6133C343.637 60.879 343.431 51.814 343.02 44.4182C341.788 44.2127 340.914 44.11 340.401 44.11C338.295 44.11 336.78 44.2898 335.855 44.6493C335.855 47.5254 336.087 51.8654 336.549 57.669C336.96 63.8322 337.165 68.1978 337.165 70.7658C337.165 71.2794 337.011 71.7674 336.703 72.2296C336.395 72.6405 336.01 72.8459 335.547 72.8459C334.88 72.8459 334.263 71.6646 333.698 69.3021C332.877 65.8096 332.209 58.4908 331.695 47.3457C331.336 39.7958 331.156 31.6809 331.156 23.0011C331.105 21.4089 331.079 19.1491 331.079 16.2215C331.079 15.2971 331.516 14.8348 332.389 14.8348C332.902 14.8348 333.416 14.9632 333.929 15.22C334.494 15.4768 334.905 15.7593 335.162 16.0675C334.957 17.711 334.854 19.637 334.854 21.8455C334.854 24.0026 334.957 26.6219 335.162 29.7035C335.316 33.2474 335.393 35.9181 335.393 37.7157V39.1024C335.342 39.5133 335.316 40.0012 335.316 40.5662C335.316 41.0798 335.368 41.7474 335.47 42.5692C335.778 42.5692 336.292 42.5435 337.011 42.4922C337.73 42.4408 338.449 42.3638 339.168 42.261C340.863 42.107 342.121 42.0299 342.943 42.0299C342.943 37.5616 342.892 33.4271 342.789 29.6265L342.635 16.7608V14.6807C343.303 14.6807 343.893 14.8091 344.407 15.0659C344.921 15.2714 345.306 15.5539 345.563 15.9134C346.025 16.4783 346.307 17.4542 346.41 18.8409V20.6128C346.41 25.0298 346.667 33.4785 347.18 45.959C347.643 57.2582 347.874 65.7326 347.874 71.3822C347.874 72.1012 347.643 72.7432 347.18 73.3082C346.769 73.8731 346.256 74.1556 345.64 74.1556ZM369.22 75.1571C367.833 75.1571 366.575 74.6949 365.445 73.7704C364.315 72.8459 363.339 71.5876 362.517 69.9954C361.028 67.222 359.924 63.4214 359.205 58.5935C358.691 55.2551 358.306 51.4031 358.049 47.0375L357.972 42.9544V38.7942C357.921 37.4589 357.895 35.841 357.895 33.9407C357.895 30.8591 358.023 28.1371 358.28 25.7745C358.486 23.3092 358.999 20.8696 359.821 18.4557C360.643 16.3499 361.824 14.8605 363.365 13.9874C364.289 13.5765 365.214 13.3711 366.138 13.3711C368.86 13.3711 371.017 14.4496 372.61 16.6067C374.356 19.0207 375.511 21.7171 376.076 24.6959C376.898 28.2911 377.36 31.7322 377.463 35.0193C377.669 38.6658 377.771 42.107 377.771 45.3426V49.7339C377.771 50.607 377.643 52.2506 377.386 54.6645C377.181 56.5648 377.078 58.1826 377.078 59.518V59.8262C376.77 61.2642 376.616 62.9591 376.616 64.9108C376.616 66.3489 376.307 67.8383 375.691 69.3791C375.075 70.9199 374.202 72.2296 373.072 73.3082C371.942 74.5408 370.658 75.1571 369.22 75.1571ZM369.374 70.9199C370.401 70.9199 371.274 69.9698 371.993 68.0694C372.61 66.3746 373.046 64.3202 373.303 61.9062C373.611 59.441 373.868 56.6675 374.073 53.5859C374.176 52.2506 374.227 50.53 374.227 48.4242L374.15 41.3366C374.048 38.5631 373.739 35.0963 373.226 30.9362C372.815 27.3923 372.045 24.2594 370.915 21.5373C370.401 20.2533 369.759 19.2518 368.989 18.5327C368.218 17.8137 367.397 17.4542 366.523 17.4542C365.239 17.4542 364.289 18.4557 363.673 20.4587C362.903 22.5645 362.389 24.8757 362.132 27.3923C361.824 30.1144 361.644 32.7081 361.593 35.1734L361.516 37.7157C361.464 38.4347 361.439 39.4106 361.439 40.6432V40.9514C361.439 44.3925 361.798 48.6297 362.517 53.663C363.339 60.4938 364.546 65.3474 366.138 68.2235C367.165 70.0211 368.244 70.9199 369.374 70.9199ZM391.058 73.7704C390.288 73.7704 389.594 73.4366 388.978 72.7689C388.362 72.1012 388.079 71.3565 388.131 70.5347C388.285 67.9154 388.362 65.2446 388.362 62.5226C388.362 60.16 388.31 56.5648 388.208 51.737C388.156 49.5285 387.977 46.2158 387.668 41.7988C387.617 40.9257 387.54 39.6674 387.437 38.0238C387.335 36.329 387.258 34.8395 387.206 33.5555C387.155 32.6824 387.129 31.3727 387.129 29.6265L387.206 21.7684C387.206 21.3062 387.155 20.6642 387.052 19.8424L386.975 18.0705C386.975 17.2487 387.181 16.6067 387.591 16.1445C388.054 15.6823 388.644 15.4511 389.363 15.4511C390.853 15.4511 391.7 16.1445 391.906 17.5312C392.111 19.072 392.214 20.2276 392.214 20.998C392.214 21.9225 392.137 22.847 391.983 23.7714C391.726 25.6718 391.598 27.3923 391.598 28.9331L391.675 31.2443C391.88 35.9694 391.983 40.3094 391.983 44.2641V53.4318C391.983 55.024 392.034 57.4122 392.137 60.5966L392.599 60.6736L393.524 57.669C395.064 52.4817 396.528 47.7566 397.915 43.4937C398.634 41.4906 399.404 38.3834 400.226 34.1719C400.586 32.3229 400.919 30.8334 401.228 29.7035L405.08 15.8363C405.439 15.1687 405.876 14.6807 406.389 14.3726C406.903 14.0131 407.416 13.859 407.93 13.9103C408.546 14.0644 409.137 14.501 409.702 15.22C410.267 15.8877 410.524 16.5554 410.472 17.2231C410.421 19.0207 410.267 20.8953 410.01 22.847C409.548 29.267 409.291 33.2987 409.24 34.9422C409.034 41.8245 408.932 46.9862 408.932 50.4273C408.932 52.0708 409.06 54.6645 409.317 58.2083C409.574 61.7008 409.728 64.012 409.779 65.1419L410.087 68.9939C410.138 70.0725 409.882 70.9199 409.317 71.5362C408.752 72.1526 408.007 72.4607 407.083 72.4607C406.518 72.4607 406.03 72.281 405.619 71.9214C405.208 71.5106 404.977 70.9713 404.925 70.3036V69.6102L405.002 54.1252V51.3518C404.9 48.681 404.797 44.5722 404.694 39.0254V35.8667V30.7821C404.643 30.7307 404.515 30.7051 404.309 30.7051C404.001 30.7564 403.539 31.9377 402.922 34.2489C402.357 36.5087 401.818 38.7942 401.305 41.1054C400.791 43.3653 400.457 44.8034 400.303 45.4197C399.841 47.6282 399.558 48.8865 399.456 49.1946C398.018 54.0738 396.862 58.157 395.989 61.444C395.116 64.6797 394.397 67.9667 393.832 71.3051C393.524 72.9486 392.599 73.7704 391.058 73.7704ZM397.684 9.9813C395.835 9.87857 394.371 9.31361 393.292 8.28642C392.214 7.25922 391.623 5.8725 391.52 4.12626V3.89514C391.52 3.02202 391.983 2.43138 392.907 2.12322C393.369 1.96914 393.883 1.99482 394.448 2.20026C395.064 2.4057 395.475 2.71386 395.681 3.12473C395.783 3.27882 395.86 3.48426 395.912 3.74106C395.963 3.9465 396.014 4.12626 396.066 4.28034C396.374 5.05074 396.811 5.43594 397.376 5.43594C397.735 5.43594 398.069 5.28186 398.377 4.9737C399.045 4.25466 399.61 3.27882 400.072 2.04618C400.586 0.864896 401.125 0.351296 401.69 0.505377C402.255 0.659458 402.717 0.993298 403.076 1.5069C403.487 1.96914 403.616 2.43138 403.462 2.89362C402.999 4.28034 402.537 5.43594 402.075 6.36041C401.613 7.28489 400.971 8.08097 400.149 8.74865C399.789 9.00545 399.327 9.26225 398.762 9.51905C398.249 9.72449 397.889 9.87857 397.684 9.9813ZM20.8763 155.77C20.0546 155.77 19.4896 155.616 19.1814 155.308C18.9246 155 18.7449 154.409 18.6422 153.536L17.9488 138.976L18.0258 136.819L18.1029 129.654C18.1029 122.207 18.0772 116.608 18.0258 112.859C17.9745 111.626 17.9488 108.827 17.9488 104.462L18.0258 101.38C18.0258 100.815 17.9231 100.481 17.7177 100.379C17.5122 100.225 16.9473 100.096 16.0228 99.9935C14.9956 99.8907 14.2509 99.8394 13.7886 99.8394C12.3506 99.8394 10.9895 100.122 9.70552 100.687C9.39736 101.406 9.2176 102.895 9.16624 105.155C9.11488 107.415 9.0892 110.188 9.0892 113.475C9.03784 114.246 9.06352 117.61 9.16624 123.568V129.808C9.16624 130.784 9.26896 132.196 9.4744 134.045C9.67984 136.202 9.78256 137.846 9.78256 138.976C9.78256 139.695 9.7312 140.619 9.62848 141.749L9.55144 144.137L9.93664 152.92C9.93664 153.639 9.7312 154.178 9.32032 154.538C8.90944 154.897 8.34448 155.051 7.62544 155C6.18736 155 5.46832 154.307 5.46832 152.92C5.6224 147.527 5.69944 142.109 5.69944 136.664V133.044C5.59672 129.038 5.494 126.059 5.39128 124.107C5.28856 122.566 5.18584 120.358 5.08312 117.482C4.92904 113.424 4.74928 107.466 4.54384 99.6083C4.54384 98.7351 4.7236 98.0931 5.08312 97.6823C5.494 97.22 6.11032 96.9632 6.93208 96.9119C12.2735 96.8091 16.3053 96.7578 19.0274 96.7578C20.0032 96.7578 20.7993 97.0659 21.4156 97.6823C22.0833 98.2986 22.3144 99.0433 22.109 99.9164C21.9035 101.149 21.8008 102.561 21.8008 104.154C21.8008 105.335 21.8265 106.234 21.8778 106.85C21.8778 107.312 21.8778 107.877 21.8778 108.545C21.9292 109.213 21.9292 109.983 21.8778 110.856C21.8265 111.986 21.8008 113.398 21.8008 115.093C21.6981 118.791 21.5697 121.411 21.4156 122.951C21.467 124.133 21.5183 126.033 21.5697 128.652C21.6724 131.22 21.7751 133.044 21.8778 134.122C21.7238 135.098 21.6467 136.1 21.6467 137.127C21.6467 138.308 21.8008 140.131 22.109 142.597C22.3144 144.394 22.4428 145.807 22.4942 146.834L22.5712 148.683C22.6739 150.326 22.7253 151.533 22.7253 152.304L22.6482 153.998C22.6996 155.18 22.109 155.77 20.8763 155.77ZM44.0389 157.157C42.6521 157.157 41.3938 156.695 40.2639 155.77C39.134 154.846 38.1581 153.588 37.3364 151.995C35.8469 149.222 34.7427 145.421 34.0237 140.594C33.5101 137.255 33.1249 133.403 32.8681 129.038L32.791 124.954V120.794C32.7397 119.459 32.714 117.841 32.714 115.941C32.714 112.859 32.8424 110.137 33.0992 107.774C33.3046 105.309 33.8182 102.87 34.64 100.456C35.4617 98.3499 36.643 96.8605 38.1838 95.9874C39.1083 95.5765 40.0328 95.3711 40.9573 95.3711C43.6793 95.3711 45.8365 96.4496 47.4286 98.6067C49.1749 101.021 50.3305 103.717 50.8954 106.696C51.7172 110.291 52.1794 113.732 52.2821 117.019C52.4876 120.666 52.5903 124.107 52.5903 127.343V131.734C52.5903 132.607 52.4619 134.251 52.2051 136.664C51.9997 138.565 51.8969 140.183 51.8969 141.518V141.826C51.5888 143.264 51.4347 144.959 51.4347 146.911C51.4347 148.349 51.1265 149.838 50.5102 151.379C49.8939 152.92 49.0208 154.23 47.8909 155.308C46.7609 156.541 45.4769 157.157 44.0389 157.157ZM44.1929 152.92C45.2201 152.92 46.0933 151.97 46.8123 150.069C47.4286 148.375 47.8652 146.32 48.122 143.906C48.4301 141.441 48.6869 138.668 48.8924 135.586C48.9951 134.251 49.0465 132.53 49.0465 130.424L48.9694 123.337C48.8667 120.563 48.5585 117.096 48.0449 112.936C47.6341 109.392 46.8637 106.259 45.7337 103.537C45.2201 102.253 44.5781 101.252 43.8077 100.533C43.0373 99.8137 42.2156 99.4542 41.3425 99.4542C40.0585 99.4542 39.1083 100.456 38.492 102.459C37.7216 104.564 37.208 106.876 36.9512 109.392C36.643 112.114 36.4633 114.708 36.4119 117.173L36.3349 119.716C36.2835 120.435 36.2578 121.411 36.2578 122.643V122.951C36.2578 126.392 36.6173 130.63 37.3364 135.663C38.1581 142.494 39.3651 147.347 40.9573 150.224C41.9845 152.021 43.063 152.92 44.1929 152.92ZM85.6766 163.012C85.2143 163.012 84.7521 162.755 84.2899 162.242C83.879 161.78 83.6735 161.24 83.6735 160.624C83.6735 159.751 83.8276 157.311 84.1358 153.305C83.0058 152.997 81.8759 152.843 80.746 152.843C79.6675 152.843 78.1523 152.971 76.2007 153.228L74.3517 153.459C70.6024 153.87 67.6492 154.153 65.4921 154.307C65.2867 154.307 63.9256 154.384 61.409 154.538C61.409 155.051 61.409 155.796 61.409 156.772C61.4603 157.748 61.4603 158.544 61.409 159.16C61.3576 159.828 61.1522 160.367 60.7927 160.778C60.4845 161.189 60.0993 161.394 59.6371 161.394C59.3803 161.394 59.0464 161.292 58.6355 161.086C58.2247 160.727 57.7881 160.033 57.3259 159.006C57.2231 158.698 57.1718 157.594 57.1718 155.693L57.0947 153.613C57.0434 153.202 57.2488 152.766 57.7111 152.304C58.1733 151.79 58.8153 151.508 59.6371 151.456C61.9483 151.302 63.4377 149.992 64.1054 147.527C64.4649 146.346 64.7987 144.933 65.1069 143.29C65.4151 141.595 65.6205 140.106 65.7232 138.822C66.4423 132.042 66.8018 126.855 66.8018 123.26C66.8018 122.027 66.7504 120.229 66.6477 117.867C66.545 116.223 66.4936 115.016 66.4936 114.246C66.4936 112.089 66.4679 110.471 66.4166 109.392C66.4166 105.027 66.3652 102.253 66.2625 101.072C66.1598 100.045 66.3395 99.1974 66.8018 98.5297C67.264 97.8107 67.9831 97.3998 68.9589 97.2971C71.4242 97.0403 72.9136 96.9119 73.4272 96.9119C74.5058 96.9119 75.4559 97.0403 76.2777 97.2971C76.6372 97.3998 76.9454 97.4511 77.2022 97.4511C77.5103 97.4511 77.7415 97.4768 77.8955 97.5282C78.8714 97.6309 79.5391 97.8363 79.8986 98.1445C80.3095 98.4527 80.5149 99.1974 80.5149 100.379L80.4379 105.694C80.4379 106.876 80.4635 107.749 80.5149 108.314C80.669 113.912 80.9515 122.54 81.3623 134.199L81.4394 136.279C81.5421 138.899 81.6705 141.569 81.8246 144.291C81.9787 146.962 82.1841 148.837 82.4409 149.915C84.3412 149.915 85.7793 150.044 86.7551 150.301C87.7823 150.557 88.2959 151.199 88.2959 152.227C88.2959 152.483 88.2702 152.689 88.2189 152.843C88.0648 153.87 87.9107 155 87.7566 156.233C87.6026 157.465 87.4998 158.518 87.4485 159.391C87.3971 159.648 87.3714 160.136 87.3714 160.855C87.3714 161.574 87.243 162.113 86.9862 162.473C86.7808 162.832 86.3442 163.012 85.6766 163.012ZM67.187 150.84C69.4468 150.634 71.2958 150.506 72.7339 150.455L78.2037 150.069C78.3064 148.94 78.3578 148.118 78.3578 147.604C78.3578 146.885 78.3064 145.652 78.2037 143.906C78.2037 143.547 78.1523 142.956 78.0496 142.134C77.9983 141.313 77.9726 140.568 77.9726 139.9L77.4333 127.651V120.024L76.5088 102.305C76.5088 101.483 76.4318 100.841 76.2777 100.379C75.7127 100.122 74.7883 99.9935 73.5043 99.9935C72.3743 99.9935 71.2958 100.07 70.2686 100.225V112.32V118.175C70.1145 125.16 69.8577 131.349 69.4982 136.742C69.3441 139.258 69.0103 141.878 68.4967 144.6C68.0344 147.322 67.5979 149.402 67.187 150.84ZM108.158 156.31C106.822 156.31 105.667 155.796 104.691 154.769C103.767 153.742 103.253 152.483 103.15 150.994C102.842 148.837 102.637 145.37 102.534 140.594L102.38 135.817C102.38 134.482 101.969 133.198 101.147 131.965C100.325 130.681 99.2725 129.936 97.9885 129.731C98.348 140.414 98.5278 148.323 98.5278 153.459C98.5278 154.897 98.0142 155.616 96.987 155.616C96.5761 155.616 96.1652 155.514 95.7544 155.308C94.7785 154.846 94.3676 154.101 94.5217 153.074C94.9326 150.044 95.138 147.039 95.138 144.06C95.138 141.903 95.061 139.643 94.9069 137.281C94.8556 136.151 94.8299 134.43 94.8299 132.119C94.7785 131.4 94.7528 130.27 94.7528 128.729C94.5474 120.306 94.3163 113.963 94.0595 109.7C93.9054 107.132 93.5202 103.845 92.9039 99.8394C92.8525 99.6339 92.8268 99.3258 92.8268 98.9149C92.8268 97.3227 93.4945 96.3983 94.8299 96.1415C95.6003 95.9874 96.2166 96.2185 96.6788 96.8348C97.1924 97.3998 97.4749 98.1445 97.5263 99.069C97.5776 99.7367 97.629 100.533 97.6804 101.457C97.7317 102.33 97.7574 103.024 97.7574 103.537L97.8344 106.08C97.9372 109.058 97.9885 111.241 97.9885 112.628V126.341C98.4508 125.263 99.0157 123.593 99.6834 121.334C100.351 119.074 100.865 117.148 101.224 115.556C101.378 114.734 101.532 113.732 101.686 112.551C101.892 111.37 102.046 110.471 102.149 109.855C102.508 106.568 102.97 103.922 103.535 101.919C104.203 99.5569 105.461 97.8363 107.31 96.7578C108.081 96.2955 108.723 96.0644 109.236 96.0644C109.596 96.0644 110.084 96.1928 110.7 96.4496C111.522 96.8091 111.933 97.5795 111.933 98.7608C111.933 99.6339 111.393 100.199 110.315 100.456C108.261 100.815 106.925 102.176 106.309 104.539C105.949 105.977 105.615 107.543 105.307 109.238C104.948 111.498 104.64 112.962 104.383 113.63C103.51 116.3 103.022 118.457 102.919 120.101C102.765 121.488 102.534 122.72 102.226 123.799C101.918 124.826 101.43 125.699 100.762 126.418C102.046 126.624 103.15 127.522 104.075 129.115C104.999 130.707 105.59 132.787 105.847 135.355C106.052 137.152 106.386 141.056 106.848 147.065L107.002 148.76C107.156 150.044 107.773 150.763 108.851 150.917C109.673 151.174 110.264 151.508 110.623 151.918C110.983 152.278 111.162 152.792 111.162 153.459C111.162 154.281 110.88 154.949 110.315 155.462C109.75 156.027 109.031 156.31 108.158 156.31ZM130.441 157.157C129.054 157.157 127.796 156.695 126.666 155.77C125.536 154.846 124.56 153.588 123.739 151.995C122.249 149.222 121.145 145.421 120.426 140.594C119.912 137.255 119.527 133.403 119.27 129.038L119.193 124.954V120.794C119.142 119.459 119.116 117.841 119.116 115.941C119.116 112.859 119.245 110.137 119.501 107.774C119.707 105.309 120.22 102.87 121.042 100.456C121.864 98.3499 123.045 96.8605 124.586 95.9874C125.51 95.5765 126.435 95.3711 127.359 95.3711C130.081 95.3711 132.239 96.4496 133.831 98.6067C135.577 101.021 136.733 103.717 137.298 106.696C138.119 110.291 138.582 113.732 138.684 117.019C138.89 120.666 138.992 124.107 138.992 127.343V131.734C138.992 132.607 138.864 134.251 138.607 136.664C138.402 138.565 138.299 140.183 138.299 141.518V141.826C137.991 143.264 137.837 144.959 137.837 146.911C137.837 148.349 137.529 149.838 136.912 151.379C136.296 152.92 135.423 154.23 134.293 155.308C133.163 156.541 131.879 157.157 130.441 157.157ZM130.595 152.92C131.622 152.92 132.495 151.97 133.214 150.069C133.831 148.375 134.267 146.32 134.524 143.906C134.832 141.441 135.089 138.668 135.295 135.586C135.397 134.251 135.449 132.53 135.449 130.424L135.372 123.337C135.269 120.563 134.961 117.096 134.447 112.936C134.036 109.392 133.266 106.259 132.136 103.537C131.622 102.253 130.98 101.252 130.21 100.533C129.439 99.8137 128.618 99.4542 127.745 99.4542C126.461 99.4542 125.51 100.456 124.894 102.459C124.124 104.564 123.61 106.876 123.353 109.392C123.045 112.114 122.865 114.708 122.814 117.173L122.737 119.716C122.686 120.435 122.66 121.411 122.66 122.643V122.951C122.66 126.392 123.019 130.63 123.739 135.663C124.56 142.494 125.767 147.347 127.359 150.224C128.387 152.021 129.465 152.92 130.595 152.92ZM152.896 155.616C150.533 155.616 149.352 154.974 149.352 153.69L149.506 144.214L149.66 134.738C149.66 131.297 149.583 126.084 149.429 119.099C149.275 112.166 149.198 106.953 149.198 103.46V102.998C149.198 101.663 149.326 100.43 149.583 99.3001C149.891 97.9134 150.713 97.22 152.048 97.22C155.644 97.22 158.494 98.3756 160.6 100.687C162.706 102.998 163.758 106.054 163.758 109.855C163.758 112.166 163.142 114.58 161.909 117.096C160.677 119.613 159.213 121.488 157.518 122.72C160.497 124.723 162.68 127.317 164.067 130.501C165.505 133.634 166.224 137.101 166.224 140.902C166.224 142.699 165.607 144.933 164.375 147.604C162.885 150.788 160.857 153.074 158.289 154.461C156.748 155.231 155.053 155.616 153.204 155.616H152.896ZM153.666 121.565C155.002 121.256 156.131 120.152 157.056 118.252C157.826 116.814 158.545 115.068 159.213 113.013C159.367 112.448 159.624 111.729 159.983 110.856V108.16C159.983 106.619 159.418 105.129 158.289 103.691C157.159 102.253 155.875 101.534 154.437 101.534C153.718 101.534 153.358 102.33 153.358 103.922C153.358 107.312 153.409 110.342 153.512 113.013L153.666 121.565ZM153.974 151.61C156.491 151.251 158.494 150.095 159.983 148.143C161.473 146.192 162.218 143.855 162.218 141.133C162.218 138.77 162.012 136.613 161.601 134.661C161.242 132.658 160.754 131.143 160.138 130.116C159.573 129.14 159.008 128.318 158.443 127.651C157.878 126.983 157.39 126.547 156.979 126.341L156.363 126.11H153.589C153.846 132.016 153.974 140.516 153.974 151.61ZM198.307 151.841C198.41 152.355 198.461 152.714 198.461 152.92C198.461 153.485 198.333 153.973 198.076 154.384C197.819 154.743 197.46 154.949 196.998 155C196.073 155.051 195.38 154.897 194.917 154.538C194.507 154.178 194.275 153.485 194.224 152.458L194.147 149.222C194.147 147.835 194.096 145.704 193.993 142.828C193.89 139.232 193.788 136.536 193.685 134.738L193.3 122.797C193.197 117.815 193.094 114.04 192.991 111.472L192.837 106.85V101.457V98.6838C192.889 98.0675 193.043 97.5282 193.3 97.0659C193.608 96.6037 194.019 96.3726 194.532 96.3726C194.943 96.3726 195.328 96.4753 195.688 96.6807C196.304 96.9889 196.689 97.4255 196.843 97.9904C196.998 98.504 197.049 99.146 196.998 99.9164V110.009C196.895 113.193 196.792 117.661 196.689 123.414C196.741 123.465 196.792 124.107 196.843 125.34C196.895 126.572 196.946 128.729 196.998 131.811C197.306 135.663 197.485 138.462 197.537 140.208C197.742 146.577 197.999 150.455 198.307 151.841ZM187.753 128.113C188.318 129.192 188.78 130.861 189.139 133.121C189.499 135.38 189.679 137.306 189.679 138.899C189.679 141.21 189.114 143.752 187.984 146.526C186.905 149.299 185.467 151.379 183.67 152.766C182.642 153.485 181.795 153.973 181.127 154.23C180.511 154.435 179.586 154.615 178.354 154.769C178.046 154.82 177.66 154.846 177.198 154.846C176.376 154.846 175.709 154.718 175.195 154.461C174.733 154.153 174.45 153.767 174.348 153.305C174.348 150.634 174.425 148.118 174.579 145.755C174.784 142.365 174.887 139.31 174.887 136.587C174.887 132.838 174.759 128.806 174.502 124.492C174.399 122.849 174.296 120.923 174.194 118.714C174.142 116.454 174.091 114.734 174.04 113.552L173.963 110.009C173.963 107.697 174.014 104.179 174.117 99.4542C174.168 98.7351 174.45 98.1702 174.964 97.7593C175.529 97.3484 176.197 97.1943 176.967 97.2971C177.686 97.3998 178.251 97.7336 178.662 98.2986C179.124 98.8122 179.278 99.4028 179.124 100.07C178.611 102.228 178.354 105.206 178.354 109.007C178.354 110.342 178.328 111.344 178.277 112.012C178.225 112.628 178.2 113.398 178.2 114.323C178.2 115.196 178.174 116.069 178.123 116.942L178.046 121.719C178.559 121.616 178.97 121.565 179.278 121.565C180.87 121.565 182.437 122.232 183.978 123.568C185.57 124.852 186.828 126.367 187.753 128.113ZM183.978 148.298C184.697 146.654 185.236 145.088 185.596 143.598C186.006 142.109 186.212 140.439 186.212 138.59C186.212 135.303 185.313 131.914 183.516 128.421C182.18 125.853 180.434 124.723 178.277 125.031L178.508 140.131C178.611 141.158 178.662 143.084 178.662 145.909C178.662 147.091 178.636 147.784 178.585 147.989C178.482 148.503 178.431 148.862 178.431 149.068C178.431 149.736 178.585 150.378 178.893 150.994C179.253 150.891 179.843 150.711 180.665 150.455C181.487 150.146 182.18 149.838 182.745 149.53C183.31 149.171 183.721 148.76 183.978 148.298Z" fill="white"/>
<path d="M3.26504 194.94H5.06384V211.726H5.22025L17.0786 194.94H18.8579V214.962H17.0297V198.196H16.8733L5.03451 214.962H3.26504V194.94ZM29.6868 214.962V194.94H31.5149V204.12H42.8747V194.94H44.7028V214.962H42.8747V205.763H31.5149V214.962H29.6868ZM54.3048 196.583V194.94H68.8223V196.583H62.4776V214.962H60.6495V196.583H54.3048ZM78.4439 214.962V194.94H90.0578V196.583H80.272V204.12H89.4419V205.763H80.272V213.319H90.2533V214.962H78.4439ZM100.295 214.962V194.94H106.757C108.178 194.94 109.364 195.214 110.316 195.762C111.274 196.303 111.994 197.039 112.476 197.971C112.965 198.903 113.209 199.952 113.209 201.119C113.209 202.286 112.968 203.338 112.486 204.277C112.004 205.209 111.287 205.948 110.335 206.496C109.384 207.037 108.201 207.307 106.787 207.307H101.703V205.665H106.738C107.787 205.665 108.657 205.469 109.348 205.078C110.039 204.681 110.554 204.14 110.893 203.455C111.238 202.771 111.411 201.992 111.411 201.119C111.411 200.246 111.238 199.467 110.893 198.782C110.554 198.098 110.036 197.56 109.338 197.169C108.647 196.778 107.771 196.583 106.708 196.583H102.123V214.962H100.295ZM120.993 214.962H119.077L126.36 194.94H128.315L135.599 214.962H133.682L127.406 197.316H127.269L120.993 214.962ZM122.372 207.288H132.304V208.93H122.372V207.288ZM156.14 214.962L149.248 205.518H146.364V214.962H144.536V194.94H146.364V203.886H148.173L155.553 194.94H157.724L150.304 203.964L158.33 214.962H156.14ZM166.062 196.583V194.94H180.58V196.583H174.235V214.962H172.407V196.583H166.062ZM190.201 194.94H192V211.726H192.156L204.015 194.94H205.794V214.962H203.966V198.196H203.81L191.971 214.962H190.201V194.94ZM216.623 214.962V194.94H223.378C224.682 194.94 225.767 195.169 226.634 195.625C227.507 196.081 228.162 196.703 228.599 197.492C229.035 198.281 229.254 199.177 229.254 200.18C229.254 201.015 229.114 201.728 228.833 202.321C228.553 202.914 228.172 203.394 227.69 203.758C227.207 204.123 226.67 204.387 226.076 204.55V204.707C226.722 204.752 227.347 204.981 227.953 205.391C228.56 205.795 229.058 206.362 229.449 207.092C229.84 207.822 230.036 208.695 230.036 209.712C230.036 210.722 229.811 211.625 229.361 212.42C228.912 213.209 228.221 213.831 227.289 214.287C226.363 214.737 225.184 214.962 223.75 214.962H216.623ZM218.451 213.319H223.75C225.294 213.319 226.435 212.977 227.171 212.293C227.914 211.609 228.286 210.748 228.286 209.712C228.286 208.95 228.1 208.259 227.729 207.64C227.364 207.014 226.846 206.519 226.174 206.154C225.509 205.789 224.727 205.606 223.828 205.606H218.451V213.319ZM218.451 203.983H223.544C224.333 203.983 225.024 203.82 225.617 203.495C226.21 203.169 226.673 202.719 227.005 202.145C227.338 201.572 227.504 200.917 227.504 200.18C227.504 199.118 227.158 198.255 226.468 197.59C225.777 196.919 224.747 196.583 223.378 196.583H218.451V203.983ZM239.953 214.962V194.94H241.781V204.12H253.141V194.94H254.969V214.962H253.141V205.763H241.781V214.962H239.953ZM267.103 203.739H273.291C274.627 203.739 275.761 203.964 276.693 204.413C277.632 204.863 278.349 205.499 278.844 206.32C279.339 207.134 279.587 208.099 279.587 209.214C279.587 210.361 279.339 211.364 278.844 212.225C278.355 213.085 277.642 213.756 276.703 214.238C275.771 214.721 274.634 214.962 273.291 214.962H265.783V194.94H267.611V213.349H273.291C274.249 213.349 275.061 213.163 275.726 212.792C276.397 212.414 276.909 211.912 277.26 211.286C277.612 210.654 277.788 209.95 277.788 209.174C277.788 208.099 277.391 207.2 276.596 206.476C275.807 205.746 274.706 205.381 273.291 205.381H267.103V203.739ZM283.771 194.94V214.962H281.943V194.94H283.771ZM294.598 194.94H296.397V211.726H296.553L308.411 194.94H310.191V214.962H308.362V198.196H308.206L296.367 214.962H294.598V194.94ZM304.188 189.935H305.83C305.83 190.867 305.521 191.623 304.902 192.203C304.289 192.783 303.452 193.073 302.389 193.073C301.34 193.073 300.509 192.783 299.896 192.203C299.284 191.623 298.977 190.867 298.977 189.935H300.62C300.62 190.444 300.757 190.874 301.03 191.226C301.311 191.571 301.764 191.744 302.389 191.744C303.015 191.744 303.471 191.571 303.758 191.226C304.045 190.874 304.188 190.444 304.188 189.935ZM345.872 214.962L338.98 205.518H336.096V214.962H334.268V194.94H336.096V203.886H337.905L345.286 194.94H347.456L340.036 203.964L348.062 214.962H345.872ZM357.007 214.962V194.94H363.762C365.065 194.94 366.151 195.169 367.017 195.625C367.891 196.081 368.546 196.703 368.982 197.492C369.419 198.281 369.637 199.177 369.637 200.18C369.637 201.015 369.497 201.728 369.217 202.321C368.937 202.914 368.555 203.394 368.073 203.758C367.591 204.123 367.053 204.387 366.46 204.55V204.707C367.105 204.752 367.731 204.981 368.337 205.391C368.943 205.795 369.442 206.362 369.833 207.092C370.224 207.822 370.419 208.695 370.419 209.712C370.419 210.722 370.195 211.625 369.745 212.42C369.295 213.209 368.604 213.831 367.672 214.287C366.747 214.737 365.567 214.962 364.133 214.962H357.007ZM358.835 213.319H364.133C365.678 213.319 366.819 212.977 367.555 212.293C368.298 211.609 368.669 210.748 368.669 209.712C368.669 208.95 368.484 208.259 368.112 207.64C367.747 207.014 367.229 206.519 366.558 206.154C365.893 205.789 365.111 205.606 364.212 205.606H358.835V213.319ZM358.835 203.983H363.928C364.717 203.983 365.408 203.82 366.001 203.495C366.594 203.169 367.056 202.719 367.389 202.145C367.721 201.572 367.887 200.917 367.887 200.18C367.887 199.118 367.542 198.255 366.851 197.59C366.16 196.919 365.131 196.583 363.762 196.583H358.835V203.983ZM380.337 214.962V194.94H391.951V196.583H382.165V204.12H391.335V205.763H382.165V213.319H392.146V214.962H380.337ZM417.869 201.197H416.031C415.894 200.513 415.647 199.881 415.288 199.301C414.936 198.714 414.493 198.202 413.959 197.766C413.424 197.329 412.818 196.99 412.14 196.749C411.462 196.508 410.729 196.387 409.941 196.387C408.676 196.387 407.523 196.716 406.48 197.375C405.444 198.033 404.613 199.001 403.987 200.278C403.368 201.549 403.058 203.107 403.058 204.951C403.058 206.809 403.368 208.373 403.987 209.644C404.613 210.915 405.444 211.879 406.48 212.537C407.523 213.189 408.676 213.515 409.941 213.515C410.729 213.515 411.462 213.394 412.14 213.153C412.818 212.912 413.424 212.576 413.959 212.146C414.493 211.71 414.936 211.198 415.288 210.612C415.647 210.025 415.894 209.39 416.031 208.705H417.869C417.706 209.624 417.4 210.481 416.95 211.276C416.507 212.065 415.94 212.756 415.249 213.349C414.565 213.942 413.776 214.405 412.883 214.737C411.99 215.069 411.009 215.236 409.941 215.236C408.259 215.236 406.767 214.815 405.463 213.974C404.16 213.127 403.136 211.935 402.393 210.396C401.657 208.858 401.289 207.043 401.289 204.951C401.289 202.859 401.657 201.044 402.393 199.506C403.136 197.968 404.16 196.778 405.463 195.938C406.767 195.09 408.259 194.667 409.941 194.667C411.009 194.667 411.99 194.833 412.883 195.165C413.776 195.491 414.565 195.954 415.249 196.554C415.94 197.147 416.507 197.837 416.95 198.626C417.4 199.415 417.706 200.272 417.869 201.197ZM426.457 196.583V194.94H440.974V196.583H434.629V214.962H432.801V196.583H426.457Z" fill="#D7D7D7"/>
</svg>
