<svg width="700" height="140" viewBox="0 0 700 140" fill="none" xmlns="http://www.w3.org/2000/svg">
<g filter="url(#filter0_b_50_15)">
<rect width="700" height="140" rx="15" fill="#D8D8D8" fill-opacity="0.4"/>
</g>
<path d="M241.034 87V52.0909H248.415V66.4943H263.398V52.0909H270.761V87H263.398V72.5795H248.415V87H241.034ZM286.704 87H278.795L290.846 52.0909H300.357L312.391 87H304.482L295.738 60.0682H295.465L286.704 87ZM286.209 73.2784H304.891V79.0398H286.209V73.2784ZM321.848 52.0909H329.024V63.3409C329.024 64.6818 329.257 65.7614 329.723 66.5795C330.189 67.3864 330.91 67.9716 331.887 68.3352C332.876 68.6875 334.143 68.8636 335.689 68.8636C336.234 68.8636 336.876 68.8466 337.615 68.8125C338.353 68.767 339.115 68.7045 339.899 68.625C340.694 68.5455 341.444 68.4489 342.149 68.3352C342.853 68.2216 343.439 68.0909 343.904 67.9432V73.7727C343.427 73.9318 342.831 74.0739 342.115 74.1989C341.41 74.3125 340.666 74.4148 339.882 74.5057C339.098 74.5852 338.336 74.6477 337.598 74.6932C336.859 74.7386 336.223 74.7614 335.689 74.7614C332.882 74.7614 330.439 74.3636 328.359 73.5682C326.279 72.7614 324.671 71.517 323.535 69.8352C322.41 68.1534 321.848 65.9886 321.848 63.3409V52.0909ZM342.626 52.0909H349.836V87H342.626V52.0909ZM366.993 87H359.084L371.135 52.0909H380.646L392.681 87H384.771L376.027 60.0682H375.754L366.993 87ZM366.499 73.2784H385.181V79.0398H366.499V73.2784ZM395.127 58.1761V52.0909H423.798V58.1761H413.11V87H405.815V58.1761H395.127ZM437.217 64.9943H445.535C448.308 64.9943 450.694 65.4432 452.694 66.3409C454.706 67.2273 456.257 68.483 457.348 70.108C458.439 71.733 458.978 73.6477 458.967 75.8523C458.978 78.0455 458.439 79.983 457.348 81.6648C456.257 83.3352 454.706 84.642 452.694 85.5852C450.694 86.5284 448.308 87 445.535 87H432.495V52.0909H439.859V81.0682H445.535C446.865 81.0682 447.984 80.8295 448.893 80.3523C449.802 79.8636 450.49 79.2216 450.956 78.4261C451.433 77.6193 451.666 76.7386 451.655 75.7841C451.666 74.3977 451.143 73.2273 450.086 72.2727C449.041 71.3068 447.524 70.8239 445.535 70.8239H437.217V64.9943Z" fill="white"/>
<defs>
<filter id="filter0_b_50_15" x="-30" y="-30" width="760" height="200" filterUnits="userSpaceOnUse" color-interpolation-filters="sRGB">
<feFlood flood-opacity="0" result="BackgroundImageFix"/>
<feGaussianBlur in="BackgroundImageFix" stdDeviation="15"/>
<feComposite in2="SourceAlpha" operator="in" result="effect1_backgroundBlur_50_15"/>
<feBlend mode="normal" in="SourceGraphic" in2="effect1_backgroundBlur_50_15" result="shape"/>
</filter>
</defs>
</svg>
